<svg xmlns="http://www.w3.org/2000/svg" xmlns:xlink="http://www.w3.org/1999/xlink" width="500" zoomAndPan="magnify" viewBox="0 0 375.12 383.03998" height="500" preserveAspectRatio="xMidYMid meet" version="1.0"><defs><clipPath id="b7dabed39b"><path d="M 57.074219 37.40625 L 317 37.40625 L 317 336.65625 L 57.074219 336.65625 Z M 57.074219 37.40625 " clip-rule="nonzero"/></clipPath></defs><path fill="#7b2fff" d="M 283.511719 105.511719 C 284.472656 120.988281 284.570312 144.914062 279.542969 171.019531 C 274.070312 199.433594 263.734375 224.613281 248.8125 245.871094 C 233.382812 267.84375 212.632812 286.046875 187.050781 300.066406 L 187.050781 74.195312 C 187.09375 74.171875 187.128906 74.15625 187.171875 74.136719 C 214.070312 87.085938 242.988281 95.546875 263.339844 100.507812 C 270 102.125 276.730469 103.621094 283.480469 104.980469 C 283.488281 105.164062 283.5 105.335938 283.511719 105.511719 " fill-opacity="1" fill-rule="nonzero"/><g clip-path="url(#b7dabed39b)"><path fill="#7b2fff" d="M 296.976562 174.371094 C 291.03125 205.261719 279.714844 232.75 263.347656 256.074219 C 244.554688 282.839844 218.800781 304.398438 186.710938 320.257812 C 154.933594 304.410156 129.398438 282.867188 110.726562 256.121094 C 94.445312 232.78125 83.167969 205.277344 77.203125 174.367188 C 71.808594 146.421875 71.84375 120.863281 72.824219 104.351562 C 73.144531 98.886719 73.589844 94.066406 74.046875 90.019531 C 82.574219 88.53125 93.960938 86.320312 106.679688 83.234375 C 129.058594 77.804688 160.023438 68.554688 187.179688 54.261719 C 214.320312 68.5625 245.21875 77.816406 267.542969 83.25 C 280.234375 86.34375 291.496094 88.542969 299.964844 90.023438 C 300.429688 94.066406 300.886719 98.898438 301.230469 104.410156 C 302.257812 120.914062 302.355469 146.441406 296.976562 174.371094 Z M 315.894531 103.5 C 315.144531 91.4375 313.855469 82.296875 313.015625 77.257812 C 305.632812 76.164062 290.066406 73.609375 271.019531 68.976562 C 247.597656 63.273438 214.441406 53.246094 187.179688 37.484375 C 159.933594 53.230469 126.699219 63.257812 103.214844 68.953125 C 84.214844 73.5625 68.382812 76.15625 60.945312 77.253906 C 60.128906 82.253906 58.875 91.320312 58.15625 103.480469 C 57.125 120.832031 57.09375 147.707031 62.773438 177.152344 C 69.128906 210.09375 81.214844 239.496094 98.679688 264.527344 C 120.050781 295.144531 149.648438 319.363281 186.6875 336.546875 C 224.046875 319.363281 253.875 295.136719 275.375 264.511719 C 292.945312 239.484375 305.066406 210.09375 311.40625 177.152344 C 317.074219 147.707031 316.976562 120.851562 315.894531 103.5 " fill-opacity="1" fill-rule="nonzero"/></g><path fill="#7b2fff" d="M 279.542969 171.019531 C 274.070312 199.433594 263.734375 224.613281 248.8125 245.871094 C 233.382812 267.84375 212.632812 286.046875 187.050781 300.066406 L 187.050781 74.195312 C 187.09375 74.171875 187.128906 74.15625 187.171875 74.136719 C 214.070312 87.085938 242.988281 95.546875 263.339844 100.507812 C 270 102.125 276.730469 103.621094 283.480469 104.980469 C 283.488281 105.164062 283.5 105.335938 283.511719 105.511719 C 284.472656 120.988281 284.570312 144.914062 279.542969 171.019531 " fill-opacity="1" fill-rule="nonzero"/></svg>