<svg xmlns="http://www.w3.org/2000/svg" xmlns:xlink="http://www.w3.org/1999/xlink" width="500" zoomAndPan="magnify" viewBox="0 0 375.12 383.03998" height="500" preserveAspectRatio="xMidYMid meet" version="1.0"><defs><clipPath id="bc6338182d"><path d="M 37.4375 116 L 301 116 L 301 317 L 37.4375 317 Z M 37.4375 116 " clip-rule="nonzero"/></clipPath><clipPath id="ea4d504f12"><path d="M 327 171 L 336.6875 171 L 336.6875 197 L 327 197 Z M 327 171 " clip-rule="nonzero"/></clipPath></defs><path fill="#00ff9c" d="M 204.027344 186.171875 C 204.027344 186.535156 203.960938 186.882812 203.820312 187.21875 C 203.679688 187.554688 203.484375 187.851562 203.226562 188.109375 C 202.96875 188.367188 202.671875 188.566406 202.335938 188.703125 C 202 188.84375 201.648438 188.914062 201.285156 188.914062 C 200.921875 188.914062 200.574219 188.84375 200.238281 188.703125 C 199.902344 188.566406 199.605469 188.367188 199.347656 188.109375 C 199.089844 187.851562 198.890625 187.554688 198.753906 187.21875 C 198.613281 186.882812 198.542969 186.535156 198.542969 186.171875 C 198.542969 185.808594 198.613281 185.457031 198.753906 185.121094 C 198.890625 184.785156 199.089844 184.488281 199.347656 184.230469 C 199.605469 183.976562 199.902344 183.777344 200.238281 183.636719 C 200.574219 183.5 200.921875 183.429688 201.285156 183.429688 C 201.648438 183.429688 202 183.5 202.335938 183.636719 C 202.671875 183.777344 202.96875 183.976562 203.226562 184.230469 C 203.484375 184.488281 203.679688 184.785156 203.820312 185.121094 C 203.960938 185.457031 204.027344 185.808594 204.027344 186.171875 Z M 204.027344 186.171875 " fill-opacity="1" fill-rule="nonzero"/><g clip-path="url(#bc6338182d)"><path fill="#00ff9c" d="M 293.152344 269.125 C 256.476562 307.515625 199.914062 318.828125 151.242188 297.234375 C 89.882812 270.152344 60.402344 199.539062 84.398438 137.152344 L 93.996094 177.945312 C 94.339844 180.34375 96.738281 182.058594 99.136719 181.371094 C 101.535156 180.6875 102.90625 178.628906 102.222656 176.230469 C 102.222656 176.230469 88.855469 119.671875 88.855469 119.671875 C 88.511719 118.300781 87.484375 116.929688 85.769531 116.585938 C 84.398438 116.242188 82.683594 116.585938 81.65625 117.613281 L 39.148438 160.804688 C 37.4375 162.519531 37.4375 165.261719 39.148438 166.976562 C 40.863281 168.6875 43.605469 168.6875 45.320312 166.976562 L 75.828125 136.125 C 50.460938 206.050781 86.453125 283.179688 156.382812 308.542969 C 206.429688 326.710938 262.644531 313.6875 299.664062 275.292969 C 301.378906 273.582031 301.378906 270.839844 300.007812 269.125 C 296.582031 266.382812 293.839844 268.78125 293.152344 269.125 Z M 293.152344 269.125 " fill-opacity="1" fill-rule="nonzero"/></g><path fill="#00ff9c" d="M 261.960938 71.339844 C 264.015625 72.367188 266.414062 71.679688 267.785156 69.625 C 268.816406 67.566406 268.128906 64.824219 266.074219 63.796875 C 266.074219 63.796875 252.019531 57.285156 249.960938 56.597656 C 247.90625 55.570312 245.164062 56.597656 244.132812 58.65625 C 243.105469 60.710938 244.132812 63.453125 246.191406 64.484375 C 246.535156 64.140625 259.21875 69.625 261.960938 71.339844 Z M 261.960938 71.339844 " fill-opacity="1" fill-rule="nonzero"/><path fill="#00ff9c" d="M 174.207031 59 C 174.550781 59 185.863281 56.941406 191.347656 56.597656 C 193.746094 56.257812 195.460938 54.199219 195.117188 52.144531 C 195.117188 49.742188 192.71875 48.03125 190.316406 48.03125 C 190.316406 48.03125 178.664062 49.402344 172.835938 50.773438 C 170.4375 51.457031 169.066406 53.515625 169.75 55.914062 C 170.4375 57.628906 172.148438 59 174.207031 59 Z M 174.207031 59 " fill-opacity="1" fill-rule="nonzero"/><path fill="#00ff9c" d="M 291.097656 92.933594 C 291.78125 93.621094 294.523438 95.332031 297.265625 92.933594 C 298.980469 91.21875 298.980469 88.476562 297.265625 86.765625 C 293.152344 82.652344 288.695312 78.878906 283.898438 75.109375 C 281.839844 73.738281 279.441406 74.082031 277.726562 75.792969 C 276.355469 77.851562 276.699219 80.25 278.414062 81.964844 C 283.210938 85.394531 287.324219 89.164062 291.097656 92.933594 Z M 291.097656 92.933594 " fill-opacity="1" fill-rule="nonzero"/><path fill="#00ff9c" d="M 228.023438 58.65625 C 228.023438 58.65625 232.136719 59.683594 233.164062 55.226562 C 233.851562 52.144531 231.792969 50.429688 230.082031 50.085938 C 224.253906 49.058594 218.425781 48.03125 212.597656 47.6875 C 210.199219 47.34375 208.140625 49.058594 207.800781 51.457031 C 207.457031 53.855469 209.171875 55.914062 211.570312 56.257812 C 211.226562 56.257812 222.539062 57.628906 228.023438 58.65625 Z M 228.023438 58.65625 " fill-opacity="1" fill-rule="nonzero"/><path fill="#00ff9c" d="M 141.300781 71.679688 C 146.097656 68.9375 151.242188 66.882812 156.382812 64.824219 C 158.4375 63.796875 159.808594 61.398438 158.78125 59.339844 C 157.753906 57.285156 155.355469 55.914062 153.296875 56.941406 C 147.8125 59 142.328125 61.742188 137.1875 64.484375 C 135.128906 65.511719 134.101562 68.253906 135.472656 70.308594 C 137.527344 73.394531 140.613281 72.023438 141.300781 71.679688 Z M 141.300781 71.679688 " fill-opacity="1" fill-rule="nonzero"/><path fill="#00ff9c" d="M 325.375 156.007812 C 325.71875 158.0625 327.429688 160.121094 330.515625 159.433594 C 332.914062 159.089844 334.285156 156.691406 333.945312 154.292969 C 333.945312 154.292969 331.203125 142.636719 329.144531 137.152344 C 328.460938 134.753906 326.058594 133.726562 323.660156 134.410156 C 321.605469 135.097656 320.234375 137.496094 320.917969 139.550781 C 320.917969 139.894531 324.347656 150.523438 325.375 156.007812 Z M 325.375 156.007812 " fill-opacity="1" fill-rule="nonzero"/><path fill="#00ff9c" d="M 329.832031 208.792969 C 327.429688 208.109375 325.375 209.480469 324.6875 211.878906 C 323.316406 217.363281 321.605469 222.507812 319.890625 227.648438 C 319.203125 229.703125 320.234375 232.445312 322.289062 233.132812 C 325.03125 234.160156 327.089844 232.445312 327.773438 230.734375 C 329.832031 225.25 331.542969 219.421875 332.914062 213.9375 C 333.601562 211.535156 332.230469 209.480469 329.832031 208.792969 Z M 329.832031 208.792969 " fill-opacity="1" fill-rule="nonzero"/><path fill="#00ff9c" d="M 316.804688 244.101562 C 314.75 243.074219 312.003906 243.757812 310.976562 245.472656 C 308.234375 250.273438 305.148438 254.726562 301.722656 259.183594 C 300.351562 261.242188 300.695312 263.640625 302.40625 265.355469 C 304.121094 267.066406 306.863281 266.382812 308.578125 264.667969 C 312.347656 259.871094 315.433594 255.070312 318.519531 249.929688 C 319.546875 247.871094 318.863281 245.128906 316.804688 244.101562 Z M 316.804688 244.101562 " fill-opacity="1" fill-rule="nonzero"/><g clip-path="url(#ea4d504f12)"><path fill="#00ff9c" d="M 336.6875 175.203125 C 336.6875 172.800781 334.628906 171.089844 332.230469 171.089844 C 329.832031 171.089844 328.117188 173.144531 328.117188 175.542969 C 328.117188 177.601562 328.117188 188.914062 327.773438 192.339844 C 327.429688 194.742188 329.488281 196.796875 331.542969 196.796875 C 331.542969 196.796875 336 197.484375 336.34375 192.683594 C 336.6875 189.597656 336.6875 177.601562 336.6875 175.203125 Z M 336.6875 175.203125 " fill-opacity="1" fill-rule="nonzero"/></g><path fill="#00ff9c" d="M 313.035156 122.070312 C 313.71875 123.441406 316.460938 124.8125 318.863281 123.785156 C 322.632812 122.070312 320.917969 118.644531 320.574219 117.957031 C 317.832031 112.816406 314.75 107.671875 310.976562 102.875 C 309.605469 100.816406 306.519531 100.476562 304.808594 102.1875 C 303.09375 103.558594 302.75 105.960938 304.121094 108.015625 C 304.121094 108.015625 310.292969 117.273438 313.035156 122.070312 Z M 313.035156 122.070312 " fill-opacity="1" fill-rule="nonzero"/><path fill="#00ff9c" d="M 247.5625 112.472656 C 248.933594 112.472656 250.304688 111.785156 251.332031 110.414062 L 254.761719 104.589844 C 255.789062 102.53125 254.761719 99.789062 252.703125 98.761719 C 250.992188 97.734375 248.589844 98.417969 247.21875 100.132812 L 243.792969 105.960938 C 241.734375 108.703125 243.792969 112.128906 247.5625 112.472656 Z M 247.5625 112.472656 " fill-opacity="1" fill-rule="nonzero"/><path fill="#00ff9c" d="M 204.027344 99.789062 C 206.429688 99.789062 208.140625 98.074219 208.140625 95.675781 L 208.140625 88.820312 C 208.140625 86.421875 206.085938 84.707031 204.027344 84.707031 C 201.972656 84.707031 199.914062 86.765625 199.914062 88.820312 L 199.914062 95.675781 C 199.914062 97.734375 201.628906 99.789062 204.027344 99.789062 Z M 204.027344 99.789062 " fill-opacity="1" fill-rule="nonzero"/><path fill="#00ff9c" d="M 154.667969 96.703125 C 152.613281 97.734375 151.925781 100.476562 152.953125 102.53125 L 156.382812 108.359375 C 157.066406 109.730469 159.46875 111.445312 162.210938 110.074219 C 164.265625 109.042969 164.953125 106.300781 163.921875 104.246094 C 163.921875 104.246094 160.496094 98.417969 160.496094 98.417969 C 158.78125 94.992188 155.355469 96.363281 154.667969 96.703125 Z M 154.667969 96.703125 " fill-opacity="1" fill-rule="nonzero"/><path fill="#00ff9c" d="M 122.105469 231.761719 L 127.929688 228.332031 C 129.988281 227.304688 130.671875 224.5625 129.644531 222.507812 C 128.617188 220.449219 125.875 219.765625 123.816406 220.792969 L 117.992188 224.21875 C 115.933594 225.25 115.25 227.992188 116.277344 230.046875 C 116.960938 231.761719 119.019531 233.476562 122.105469 231.761719 Z M 122.105469 231.761719 " fill-opacity="1" fill-rule="nonzero"/><path fill="#00ff9c" d="M 150.210938 260.898438 C 148.839844 262.953125 149.871094 267.066406 153.984375 267.410156 C 155.355469 267.410156 156.726562 266.726562 157.753906 265.355469 L 161.179688 259.527344 C 162.550781 257.46875 161.867188 254.726562 159.808594 253.699219 C 157.753906 252.328125 155.355469 253.015625 153.984375 255.070312 C 153.640625 255.070312 150.210938 260.898438 150.210938 260.898438 Z M 150.210938 260.898438 " fill-opacity="1" fill-rule="nonzero"/><path fill="#00ff9c" d="M 196.488281 269.808594 L 196.488281 276.664062 C 196.488281 279.066406 198.203125 281.121094 200.601562 281.121094 C 203 281.121094 204.714844 279.410156 204.714844 277.007812 L 204.714844 270.152344 C 205.058594 263.984375 196.488281 263.640625 196.488281 269.808594 Z M 196.488281 269.808594 " fill-opacity="1" fill-rule="nonzero"/><path fill="#00ff9c" d="M 242.421875 255.414062 C 240.363281 256.441406 239.679688 259.183594 240.707031 261.242188 L 244.132812 267.066406 C 244.820312 268.4375 246.191406 269.46875 247.90625 269.46875 C 248.589844 269.46875 249.277344 269.125 249.960938 268.78125 C 252.019531 267.753906 252.703125 265.011719 251.675781 262.953125 L 248.25 257.128906 C 247.21875 255.070312 244.476562 254.386719 242.421875 255.414062 Z M 242.421875 255.414062 " fill-opacity="1" fill-rule="nonzero"/><path fill="#00ff9c" d="M 284.925781 227.648438 L 279.097656 224.21875 C 277.042969 222.847656 274.300781 223.535156 273.269531 225.589844 C 272.242188 227.648438 272.585938 230.046875 274.640625 231.417969 C 274.640625 231.417969 274.640625 231.417969 274.984375 231.417969 L 280.8125 234.847656 C 282.871094 236.21875 285.613281 235.53125 286.640625 233.476562 C 286.640625 233.476562 286.640625 233.476562 286.640625 233.132812 C 287.667969 231.417969 286.984375 228.675781 284.925781 227.648438 Z M 284.925781 227.648438 " fill-opacity="1" fill-rule="nonzero"/><path fill="#00ff9c" d="M 289.726562 180 C 287.324219 180 285.613281 181.714844 285.269531 184.113281 C 285.269531 186.515625 286.984375 188.570312 289.382812 188.570312 L 296.238281 188.570312 C 298.636719 188.570312 300.351562 186.515625 300.351562 184.457031 C 300.351562 182.402344 298.292969 180.34375 296.238281 180.34375 L 289.726562 180.34375 Z M 289.726562 180 " fill-opacity="1" fill-rule="nonzero"/><path fill="#00ff9c" d="M 278.753906 145.035156 C 279.441406 145.035156 280.125 144.695312 280.8125 144.351562 L 286.640625 140.921875 C 288.695312 139.894531 289.382812 137.152344 288.355469 135.097656 C 287.324219 133.039062 284.582031 132.355469 282.527344 133.382812 L 276.699219 136.808594 C 274.640625 137.839844 273.957031 140.582031 274.984375 142.636719 C 275.671875 144.007812 277.042969 144.695312 278.753906 145.035156 Z M 278.753906 145.035156 " fill-opacity="1" fill-rule="nonzero"/><path fill="#00ff9c" d="M 203 187.199219 C 203.34375 186.855469 203.34375 186.171875 203.34375 185.828125 C 203.34375 185.484375 203 184.800781 202.65625 184.457031 C 202.316406 184.113281 201.628906 184.113281 201.285156 184.113281 C 200.945312 184.113281 200.257812 184.457031 199.914062 184.800781 C 199.230469 185.484375 199.230469 186.855469 199.914062 187.542969 C 200.945312 188.226562 201.972656 188.226562 203 187.199219 Z M 203 187.199219 " fill-opacity="1" fill-rule="nonzero"/><path fill="#00ff9c" d="M 201.972656 260.210938 C 245.164062 260.210938 279.785156 225.25 279.785156 182.402344 C 279.785156 139.550781 245.164062 104.589844 201.972656 104.589844 C 158.78125 104.589844 124.160156 139.210938 124.160156 182.402344 C 124.160156 225.25 159.125 260.210938 201.972656 260.210938 Z M 152.953125 142.636719 C 154.667969 140.921875 157.410156 140.582031 159.125 142.292969 L 197.171875 176.230469 C 198.203125 175.542969 199.574219 175.542969 200.945312 175.203125 C 202.316406 175.203125 203.34375 175.203125 204.714844 175.542969 L 245.503906 129.953125 C 246.878906 128.242188 249.621094 127.554688 251.675781 129.269531 C 253.390625 130.640625 254.074219 133.382812 252.363281 135.4375 C 252.363281 135.4375 210.882812 181.714844 210.882812 181.714844 C 211.570312 182.742188 211.570312 184.113281 211.914062 185.484375 C 211.914062 191.3125 207.457031 196.113281 201.628906 196.113281 C 195.800781 196.113281 191.003906 191.65625 191.003906 185.828125 C 191.003906 184.800781 191.003906 183.773438 191.347656 182.742188 L 153.296875 148.464844 C 151.582031 147.09375 151.582031 144.351562 152.953125 142.636719 Z M 152.953125 142.636719 " fill-opacity="1" fill-rule="nonzero"/></svg>