<svg xmlns="http://www.w3.org/2000/svg" xmlns:xlink="http://www.w3.org/1999/xlink" width="500" zoomAndPan="magnify" viewBox="0 0 375.12 383.03998" height="500" preserveAspectRatio="xMidYMid meet" version="1.0"><defs><clipPath id="dd28a2d602"><path d="M 37.4375 275 L 89 275 L 89 327 L 37.4375 327 Z M 37.4375 275 " clip-rule="nonzero"/></clipPath><clipPath id="1650b556f6"><path d="M 37.4375 47.320312 L 89 47.320312 L 89 99 L 37.4375 99 Z M 37.4375 47.320312 " clip-rule="nonzero"/></clipPath><clipPath id="58c227aa92"><path d="M 249 125 L 336.6875 125 L 336.6875 249 L 249 249 Z M 249 125 " clip-rule="nonzero"/></clipPath></defs><path fill="#00c5fb" d="M 141.433594 93.089844 L 141.433594 85.378906 C 141.433594 83.160156 140.527344 81.140625 139.0625 79.679688 C 137.601562 78.214844 135.582031 77.308594 133.363281 77.308594 L 96.75 77.308594 C 96.933594 75.878906 97.027344 74.421875 97.027344 72.945312 C 97.027344 71.464844 96.933594 70.011719 96.75 68.582031 L 133.363281 68.582031 C 137.992188 68.582031 142.191406 70.464844 145.234375 73.507812 C 148.273438 76.550781 150.160156 80.75 150.160156 85.378906 L 150.160156 93.101562 Z M 141.433594 93.089844 " fill-opacity="1" fill-rule="evenodd"/><path fill="#00c5fb" d="M 97.027344 296.753906 L 133.199219 296.753906 C 135.417969 296.753906 137.433594 295.847656 138.898438 294.382812 C 140.359375 292.921875 141.265625 290.902344 141.265625 288.683594 L 141.265625 280.960938 L 149.996094 280.972656 L 149.996094 288.683594 C 149.996094 293.3125 148.109375 297.511719 145.066406 300.554688 C 142.027344 303.597656 137.828125 305.480469 133.199219 305.480469 L 97.027344 305.480469 Z M 97.027344 296.753906 " fill-opacity="1" fill-rule="evenodd"/><g clip-path="url(#dd28a2d602)"><path fill="#00c5fb" d="M 37.4375 275.683594 L 88.300781 275.683594 L 88.300781 326.550781 L 37.4375 326.550781 Z M 37.4375 275.683594 " fill-opacity="1" fill-rule="evenodd"/></g><g clip-path="url(#1650b556f6)"><path fill="#00c5fb" d="M 88.300781 72.945312 C 88.300781 73.777344 88.257812 74.609375 88.175781 75.4375 C 88.097656 76.265625 87.972656 77.089844 87.8125 77.90625 C 87.648438 78.722656 87.445312 79.53125 87.203125 80.328125 C 86.964844 81.125 86.683594 81.90625 86.363281 82.675781 C 86.046875 83.445312 85.691406 84.199219 85.296875 84.933594 C 84.90625 85.667969 84.476562 86.382812 84.015625 87.074219 C 83.550781 87.765625 83.054688 88.433594 82.527344 89.078125 C 82 89.722656 81.441406 90.339844 80.851562 90.925781 C 80.261719 91.515625 79.644531 92.074219 79.003906 92.605469 C 78.359375 93.132812 77.691406 93.628906 76.996094 94.089844 C 76.304688 94.554688 75.589844 94.980469 74.855469 95.375 C 74.121094 95.765625 73.371094 96.121094 72.601562 96.441406 C 71.832031 96.757812 71.046875 97.039062 70.25 97.28125 C 69.453125 97.523438 68.648438 97.726562 67.828125 97.886719 C 67.011719 98.050781 66.191406 98.171875 65.359375 98.253906 C 64.53125 98.335938 63.699219 98.375 62.867188 98.375 C 62.035156 98.375 61.203125 98.335938 60.375 98.253906 C 59.546875 98.171875 58.722656 98.050781 57.90625 97.886719 C 57.089844 97.726562 56.28125 97.523438 55.484375 97.28125 C 54.6875 97.039062 53.90625 96.757812 53.136719 96.441406 C 52.367188 96.121094 51.613281 95.765625 50.878906 95.375 C 50.144531 94.980469 49.429688 94.554688 48.738281 94.089844 C 48.046875 93.628906 47.378906 93.132812 46.734375 92.605469 C 46.089844 92.074219 45.472656 91.515625 44.886719 90.925781 C 44.296875 90.339844 43.738281 89.722656 43.210938 89.078125 C 42.679688 88.433594 42.183594 87.765625 41.722656 87.074219 C 41.257812 86.382812 40.832031 85.667969 40.4375 84.933594 C 40.046875 84.199219 39.691406 83.445312 39.371094 82.675781 C 39.054688 81.90625 38.773438 81.125 38.53125 80.328125 C 38.289062 79.53125 38.085938 78.722656 37.925781 77.90625 C 37.761719 77.089844 37.640625 76.265625 37.558594 75.4375 C 37.476562 74.609375 37.4375 73.777344 37.4375 72.945312 C 37.4375 72.113281 37.476562 71.28125 37.558594 70.453125 C 37.640625 69.621094 37.761719 68.800781 37.925781 67.984375 C 38.085938 67.167969 38.289062 66.359375 38.53125 65.5625 C 38.773438 64.765625 39.054688 63.980469 39.371094 63.210938 C 39.691406 62.441406 40.046875 61.691406 40.4375 60.957031 C 40.832031 60.222656 41.257812 59.507812 41.722656 58.816406 C 42.183594 58.121094 42.679688 57.453125 43.210938 56.8125 C 43.738281 56.167969 44.296875 55.550781 44.886719 54.960938 C 45.472656 54.371094 46.089844 53.8125 46.734375 53.285156 C 47.378906 52.757812 48.046875 52.261719 48.738281 51.800781 C 49.429688 51.335938 50.144531 50.910156 50.878906 50.515625 C 51.613281 50.125 52.367188 49.765625 53.136719 49.449219 C 53.90625 49.128906 54.6875 48.851562 55.484375 48.609375 C 56.28125 48.367188 57.089844 48.164062 57.90625 48 C 58.722656 47.839844 59.546875 47.71875 60.375 47.636719 C 61.203125 47.554688 62.035156 47.511719 62.867188 47.511719 C 63.699219 47.511719 64.53125 47.554688 65.359375 47.636719 C 66.191406 47.71875 67.011719 47.839844 67.828125 48 C 68.648438 48.164062 69.453125 48.367188 70.25 48.609375 C 71.046875 48.851562 71.832031 49.128906 72.601562 49.449219 C 73.371094 49.765625 74.121094 50.125 74.855469 50.515625 C 75.589844 50.910156 76.304688 51.335938 76.996094 51.800781 C 77.691406 52.261719 78.359375 52.757812 79.003906 53.285156 C 79.644531 53.8125 80.261719 54.371094 80.851562 54.960938 C 81.441406 55.550781 82 56.167969 82.527344 56.8125 C 83.054688 57.453125 83.550781 58.121094 84.015625 58.816406 C 84.476562 59.507812 84.90625 60.222656 85.296875 60.957031 C 85.691406 61.691406 86.046875 62.441406 86.363281 63.210938 C 86.683594 63.980469 86.964844 64.765625 87.203125 65.5625 C 87.445312 66.359375 87.648438 67.167969 87.8125 67.984375 C 87.972656 68.800781 88.097656 69.621094 88.175781 70.453125 C 88.257812 71.28125 88.300781 72.113281 88.300781 72.945312 Z M 88.300781 72.945312 " fill-opacity="1" fill-rule="nonzero"/></g><path fill="#00c5fb" d="M 123.742188 207.296875 C 113.289062 195.996094 113.171875 178.585938 123.757812 166.757812 L 123.796875 166.714844 C 123.925781 166.570312 124.054688 166.429688 124.183594 166.289062 C 135.632812 154.378906 154.914062 153.964844 166.84375 165.914062 C 178.5 177.597656 178.484375 196.519531 166.800781 208.175781 C 154.679688 220.277344 135.164062 219.625 123.765625 207.324219 Z M 112.535156 245.789062 C 117.261719 248.460938 122.296875 250.546875 127.527344 252.003906 L 132.78125 272.226562 L 158.480469 272.25 L 163.773438 252.042969 C 169.015625 250.589844 174.0625 248.507812 178.804688 245.839844 L 196.8125 256.417969 L 215 238.265625 L 204.457031 220.234375 C 207.132812 215.5 209.226562 210.457031 210.6875 205.21875 L 230.910156 199.960938 L 230.933594 174.265625 L 210.722656 168.972656 C 209.273438 163.730469 207.191406 158.679688 204.519531 153.941406 L 215.101562 135.933594 L 212.1875 133.015625 C 208.078125 128.898438 203.96875 124.78125 199.859375 120.664062 L 196.945312 117.746094 L 178.917969 128.289062 C 174.183594 125.609375 169.140625 123.519531 163.902344 122.058594 L 158.644531 101.835938 L 132.949219 101.8125 L 127.652344 122.019531 C 122.40625 123.472656 117.351562 125.558594 112.609375 128.230469 L 94.582031 117.671875 L 76.40625 135.828125 L 86.957031 153.855469 C 84.28125 158.589844 82.191406 163.632812 80.730469 168.875 L 60.511719 174.136719 L 60.5 199.835938 L 80.710938 205.121094 C 82.167969 210.363281 84.25 215.410156 86.921875 220.148438 L 76.351562 238.160156 L 79.265625 241.078125 C 83.375 245.191406 87.488281 249.308594 91.597656 253.421875 L 94.511719 256.339844 Z M 112.535156 245.789062 " fill-opacity="1" fill-rule="evenodd"/><g clip-path="url(#58c227aa92)"><path fill="#00c5fb" d="M 249.613281 202.554688 L 249.644531 171.507812 L 283.722656 171.507812 L 258.054688 146.277344 L 273.914062 125.335938 L 336.6875 187.03125 L 273.914062 248.726562 L 258.054688 227.785156 L 283.722656 202.554688 Z M 249.613281 202.554688 " fill-opacity="1" fill-rule="evenodd"/></g></svg>