<svg xmlns="http://www.w3.org/2000/svg" xmlns:xlink="http://www.w3.org/1999/xlink" width="500" zoomAndPan="magnify" viewBox="0 0 375.12 383.03998" height="500" preserveAspectRatio="xMidYMid meet" version="1.0"><defs><clipPath id="86a4286ee5"><path d="M 37.4375 37.40625 L 336.6875 37.40625 L 336.6875 336.65625 L 37.4375 336.65625 Z M 37.4375 37.40625 " clip-rule="nonzero"/></clipPath></defs><g clip-path="url(#86a4286ee5)"><path fill="#e8f4ff" d="M 326.859375 211.816406 C 297.398438 211.816406 282.609375 247.515625 303.445312 268.351562 C 307.277344 272.1875 307.277344 278.425781 303.445312 282.261719 L 282.289062 303.414062 C 278.457031 307.25 272.214844 307.25 268.382812 303.414062 C 247.546875 282.578125 211.847656 297.371094 211.847656 326.832031 C 211.847656 332.273438 207.445312 336.65625 202.019531 336.65625 L 172.101562 336.65625 C 166.675781 336.65625 162.273438 332.273438 162.273438 326.832031 C 162.273438 297.335938 126.59375 282.558594 105.742188 303.414062 C 101.90625 307.25 95.683594 307.25 91.851562 303.414062 L 70.679688 282.261719 C 66.84375 278.425781 66.84375 272.1875 70.679688 268.351562 C 91.515625 247.515625 76.742188 211.816406 47.261719 211.816406 C 41.835938 211.816406 37.4375 207.417969 37.4375 201.992188 L 37.4375 172.070312 C 37.4375 166.644531 41.835938 162.246094 47.261719 162.246094 C 76.742188 162.246094 91.515625 126.546875 70.679688 105.710938 C 66.84375 101.875 66.84375 95.65625 70.679688 91.820312 L 91.851562 70.648438 C 95.683594 66.8125 101.90625 66.8125 105.742188 70.648438 C 126.578125 91.484375 162.273438 76.710938 162.273438 47.230469 C 162.273438 41.804688 166.675781 37.40625 172.101562 37.40625 L 202.019531 37.40625 C 207.445312 37.40625 211.847656 41.804688 211.847656 47.230469 C 211.847656 76.710938 247.546875 91.484375 268.382812 70.648438 C 272.214844 66.8125 278.457031 66.8125 282.289062 70.648438 L 303.445312 91.820312 C 307.277344 95.65625 307.277344 101.875 303.445312 105.710938 C 282.609375 126.546875 297.398438 162.246094 326.859375 162.246094 C 332.304688 162.246094 336.6875 166.644531 336.6875 172.070312 L 336.6875 201.992188 C 336.6875 207.417969 332.304688 211.816406 326.859375 211.816406 Z M 187.070312 274.214844 C 235.074219 274.214844 274.246094 235.042969 274.246094 187.042969 C 274.246094 139.019531 235.074219 99.867188 187.070312 99.867188 C 139.046875 99.867188 99.898438 139.019531 99.898438 187.042969 C 99.898438 235.042969 139.046875 274.214844 187.070312 274.214844 Z M 137.363281 160.96875 C 148.804688 160.96875 158.09375 170.257812 158.09375 181.699219 C 158.09375 193.140625 148.804688 202.425781 137.363281 202.425781 C 125.921875 202.425781 116.632812 193.140625 116.632812 181.699219 C 116.632812 170.257812 125.921875 160.96875 137.363281 160.96875 Z M 164.304688 204.609375 L 164.304688 193.621094 C 165.921875 189.972656 166.820312 185.941406 166.820312 181.699219 C 166.820312 176.128906 165.273438 170.917969 162.582031 166.476562 C 166.414062 164.402344 170.730469 163.289062 175.164062 163.289062 L 198.960938 163.289062 C 203.390625 163.289062 207.710938 164.402344 211.539062 166.476562 C 208.851562 170.917969 207.300781 176.128906 207.300781 181.699219 C 207.300781 185.941406 208.199219 189.972656 209.816406 193.621094 L 209.816406 204.609375 C 204.859375 206.488281 200.296875 209.394531 196.453125 213.195312 L 187.0625 222.476562 L 177.667969 213.195312 C 173.828125 209.394531 169.265625 206.488281 164.304688 204.609375 Z M 211.246094 261.664062 L 211.246094 234.328125 L 202.992188 242.488281 C 202.386719 239.203125 200.804688 236.0625 198.25 233.539062 L 193.269531 228.613281 L 202.589844 219.402344 C 208.136719 213.917969 215.621094 210.84375 223.417969 210.84375 L 250.097656 210.84375 C 253.90625 210.84375 257.636719 211.578125 261.101562 212.964844 C 253.007812 235.953125 234.476562 254.101562 211.246094 261.664062 Z M 113.035156 212.957031 C 116.5 211.574219 120.222656 210.84375 124.023438 210.84375 L 150.703125 210.84375 C 158.503906 210.84375 165.988281 213.917969 171.535156 219.402344 L 192.113281 239.746094 C 195.324219 242.917969 195.355469 248.09375 192.183594 251.304688 L 191.933594 251.554688 C 188.761719 254.765625 183.585938 254.796875 180.375 251.625 L 162.875 234.328125 L 162.875 261.660156 C 139.648438 254.09375 121.125 235.945312 113.035156 212.957031 Z M 187.0625 118.800781 C 197.265625 118.800781 205.550781 127.085938 205.550781 137.292969 C 205.550781 147.496094 197.265625 155.78125 187.0625 155.78125 C 176.855469 155.78125 168.570312 147.496094 168.570312 137.292969 C 168.570312 127.085938 176.855469 118.800781 187.0625 118.800781 Z M 236.757812 160.96875 C 248.199219 160.96875 257.488281 170.257812 257.488281 181.699219 C 257.488281 193.140625 248.199219 202.425781 236.757812 202.425781 C 225.316406 202.425781 216.027344 193.140625 216.027344 181.699219 C 216.027344 170.257812 225.316406 160.96875 236.757812 160.96875 Z M 236.757812 160.96875 " fill-opacity="1" fill-rule="evenodd"/></g></svg>