<svg xmlns="http://www.w3.org/2000/svg" width="500" height="500" version="1.0" viewBox="0 0 375 375"><defs><clipPath id="a"><path d="M85 180h252.5v14H85Zm0 0"/></clipPath><clipPath id="b"><path d="M205 81h132.5v14H205Zm0 0"/></clipPath><clipPath id="c"><path d="M37.5 278H288v15H37.5Zm0 0"/></clipPath><clipPath id="d"><path d="M157 59.59h61V120h-61Zm0 0"/></clipPath><clipPath id="e"><path d="M37.5 157H98v60H37.5Zm0 0"/></clipPath><clipPath id="f"><path d="M277 255h60.5v60.34H277Zm0 0"/></clipPath><clipPath id="g"><path d="M37.5 81H170v14H37.5Zm0 0"/></clipPath></defs><g clip-path="url(#a)"><path fill="#476786" d="M330.906 180.32c1.742 0 3.418.692 4.649 1.922a6.6 6.6 0 0 1 1.922 4.649 6.57 6.57 0 0 1-6.57 6.574H92a6.576 6.576 0 0 1-6.574-6.574c0-1.743.695-3.41 1.926-4.649A6.6 6.6 0 0 1 92 180.32Zm0 0"/></g><g clip-path="url(#b)"><path fill="#476786" d="M330.906 81.773c1.742 0 3.418.692 4.649 1.922a6.58 6.58 0 0 1 1.922 4.649 6.57 6.57 0 0 1-6.57 6.574H212.054a6.6 6.6 0 0 1-4.653-1.926 6.57 6.57 0 0 1-1.922-4.648c0-1.742.692-3.418 1.922-4.649a6.6 6.6 0 0 1 4.653-1.922Zm0 0"/></g><g clip-path="url(#c)"><path fill="#476786" d="M280.77 278.867c1.738 0 3.414.692 4.648 1.922a6.58 6.58 0 0 1 1.926 4.649 6.56 6.56 0 0 1-1.926 4.648 6.58 6.58 0 0 1-4.648 1.926H44.195a6.57 6.57 0 0 1-6.57-6.574c0-1.743.691-3.41 1.922-4.649a6.6 6.6 0 0 1 4.648-1.922Zm0 0"/></g><g clip-path="url(#d)"><path fill="#476786" fill-rule="evenodd" d="M157.652 89.469a29.897 29.897 0 0 1 29.903-29.903 29.87 29.87 0 0 1 21.14 8.762 29.9 29.9 0 0 1 8.758 21.14c0 7.93-3.152 15.536-8.758 21.141a29.9 29.9 0 0 1-21.14 8.762 29.897 29.897 0 0 1-29.902-29.902m13.145 0c0-4.442 1.766-8.707 4.906-11.852a16.78 16.78 0 0 1 11.852-4.902c4.437 0 8.707 1.765 11.847 4.902a16.8 16.8 0 0 1 4.907 11.852c0 4.437-1.77 8.707-4.907 11.847a16.8 16.8 0 0 1-11.847 4.907c-4.446 0-8.707-1.77-11.852-4.907a16.77 16.77 0 0 1-4.906-11.847m0 0"/></g><g clip-path="url(#e)"><path fill="#476786" fill-rule="evenodd" d="M37.523 186.914a29.9 29.9 0 0 1 8.754-21.14 29.9 29.9 0 0 1 21.145-8.758 29.92 29.92 0 0 1 21.144 8.757 29.93 29.93 0 0 1 8.758 21.141c0 7.93-3.156 15.543-8.758 21.149a29.913 29.913 0 0 1-42.289 0 29.92 29.92 0 0 1-8.754-21.149m13.145 0c0-4.437 1.762-8.703 4.906-11.848a16.78 16.78 0 0 1 11.848-4.906c4.441 0 8.707 1.77 11.851 4.906a16.8 16.8 0 0 1 4.907 11.848 16.8 16.8 0 0 1-4.907 11.852 16.76 16.76 0 0 1-23.7 0 16.76 16.76 0 0 1-4.905-11.852m0 0"/></g><g clip-path="url(#f)"><path fill="#476786" fill-rule="evenodd" d="M277.676 285.46a29.9 29.9 0 1 1 59.802.004 29.9 29.9 0 0 1-59.802-.003m13.144 0c0-4.437 1.77-8.702 4.907-11.847a16.8 16.8 0 0 1 11.851-4.906c4.445 0 8.703 1.77 11.848 4.906a16.759 16.759 0 0 1-11.848 28.606c-4.441 0-8.707-1.77-11.851-4.906a16.8 16.8 0 0 1-4.907-11.852m0 0"/></g><g clip-path="url(#g)"><path fill="#476786" d="M162.457 81.773a6.6 6.6 0 0 1 4.648 1.922 6.576 6.576 0 0 1 0 9.297 6.6 6.6 0 0 1-4.648 1.926H44.195a6.6 6.6 0 0 1-4.648-1.926 6.57 6.57 0 0 1-1.922-4.648c0-1.742.691-3.418 1.922-4.649a6.6 6.6 0 0 1 4.648-1.922Zm0 0"/></g></svg>