<svg xmlns="http://www.w3.org/2000/svg" width="500" height="500" version="1.0" viewBox="0 0 375.12 383.04"><defs><clipPath id="a"><path d="M93 82h182v254.656H93Zm0 0"/></clipPath><clipPath id="b"><path d="M179 37.406h11V67h-11Zm0 0"/></clipPath></defs><g clip-path="url(#a)"><path fill="#476786" d="M244.656 105.426c-19.531-17.465-44.758-25.446-71.05-22.543-39.84 4.457-73.2 36.34-79.325 75.808-4.676 30.094 5.149 59.301 26.934 80.141 11.273 10.781 17.875 26.523 18.472 43.469h-2.273a4.99 4.99 0 0 0-4.988 4.988v18.813a4.99 4.99 0 0 0 4.988 4.988h2.383v20.578a4.99 4.99 0 0 0 4.988 4.988h78.555a4.99 4.99 0 0 0 4.988-4.988v-20.586h2.383a4.99 4.99 0 0 0 4.988-4.988V287.28a4.99 4.99 0 0 0-4.988-4.988h-2.356c.133-16.219 7.153-32.09 19.864-44.738 17.254-17.168 26.77-40.02 26.77-64.348-.009-25.836-11.063-50.543-30.333-67.781M218.363 326.68h-68.578v-15h68.578Zm-49.476-129.157h-2.946c-7.27 0-13.175-5.914-13.175-13.183 0-4.031 3.273-7.305 7.3-7.305h1.508a7.306 7.306 0 0 1 7.301 7.305v13.183Zm21.902 84.758h-11.93v-74.793h11.93Zm34.945 9.985v8.84h-83.332v-8.84Zm15.45-61.786c-14.602 14.536-22.692 32.91-22.82 51.801h-17.598v-74.793h1.437c12.766 0 23.152-10.39 23.152-23.16 0-9.527-7.75-17.277-17.277-17.277s-17.277 7.75-17.277 17.277v13.188h-11.93V184.34c0-9.528-7.75-17.278-17.277-17.278h-1.508c-9.524 0-17.274 7.75-17.274 17.278 0 12.765 10.383 23.16 23.153 23.16h2.941v74.793h-19.144c-.606-19.672-8.407-38.023-21.625-50.672-19.399-18.547-28.137-44.57-23.969-71.402 5.445-35.102 35.121-63.461 70.574-67.422 23.45-2.613 45.903 4.508 63.29 20.07 17.167 15.352 27.003 37.348 27.003 60.348-.031 21.648-8.488 41.984-23.851 57.265m-40.418-32.957V184.34c0-4.031 3.273-7.305 7.3-7.305a7.31 7.31 0 0 1 7.305 7.305c0 7.27-5.918 13.183-13.18 13.183Zm0 0"/></g><g clip-path="url(#b)"><path fill="#476786" d="M184.066 66.621a4.99 4.99 0 0 0 4.989-4.984V42.395a4.99 4.99 0 0 0-4.989-4.989 4.99 4.99 0 0 0-4.984 4.989v19.242a4.99 4.99 0 0 0 4.984 4.984m0 0"/></g><path fill="#476786" d="M75.012 66.266a4.993 4.993 0 0 0-7.055 0 4.99 4.99 0 0 0 0 7.05l13.61 13.606a4.97 4.97 0 0 0 3.53 1.457 5 5 0 0 0 3.528-1.457 4.99 4.99 0 0 0 0-7.05Zm214.074 22.113c1.273 0 2.55-.488 3.531-1.457l13.606-13.606a4.99 4.99 0 0 0 0-7.05 4.993 4.993 0 0 0-7.055 0L285.562 79.87a4.99 4.99 0 0 0 0 7.05 4.94 4.94 0 0 0 3.524 1.458M81.574 231.848l-13.617 13.597a4.99 4.99 0 0 0 0 7.051 4.97 4.97 0 0 0 3.531 1.457 5 5 0 0 0 3.532-1.457l13.605-13.594a4.993 4.993 0 0 0 0-7.054 4.98 4.98 0 0 0-7.05 0m211.042 0a4.993 4.993 0 0 0-7.055 0 4.993 4.993 0 0 0 0 7.054l13.606 13.606a4.98 4.98 0 0 0 3.531 1.457 5 5 0 0 0 3.531-1.457 4.993 4.993 0 0 0 0-7.055ZM73.805 161.555a4.99 4.99 0 0 0-4.989-4.989h-19.77a4.99 4.99 0 0 0-4.987 4.989 4.99 4.99 0 0 0 4.988 4.988h19.77a4.98 4.98 0 0 0 4.988-4.988m250.98-4.989h-19.77a4.99 4.99 0 0 0-4.988 4.989 4.99 4.99 0 0 0 4.989 4.988h19.77a4.99 4.99 0 0 0 4.987-4.988 4.985 4.985 0 0 0-4.988-4.989m0 0"/></svg>