<svg xmlns="http://www.w3.org/2000/svg" width="500" height="500" version="1.0" viewBox="0 0 375.12 383.04"><defs><clipPath id="a"><path d="M37.438 37.406h299.25v299.25H37.438Zm0 0"/></clipPath></defs><g clip-path="url(#a)"><path fill="#476786" d="M331.86 158.07h-32.618a114.1 114.1 0 0 0-12.383-29.882l23.07-23.063a4.9 4.9 0 0 0 1.044-1.57c.12-.293.214-.594.273-.903a4.8 4.8 0 0 0 0-1.886 4.7 4.7 0 0 0-.719-1.738 5 5 0 0 0-.597-.735l-34.133-34.129a5 5 0 0 0-.73-.602 4.85 4.85 0 0 0-5.367 0 5 5 0 0 0-.731.602l-23.067 23.07a114.1 114.1 0 0 0-29.882-12.386V42.234q-.002-.479-.09-.941a4.9 4.9 0 0 0-.723-1.742 4.7 4.7 0 0 0-.602-.73 4.7 4.7 0 0 0-.73-.602 4.7 4.7 0 0 0-1.738-.719 5 5 0 0 0-.942-.094H162.93q-.48 0-.942.094a4.9 4.9 0 0 0-1.742.719 4.9 4.9 0 0 0-1.332 1.332 4.85 4.85 0 0 0-.812 2.684v32.613a114.1 114.1 0 0 0-29.883 12.386l-23.067-23.07a5 5 0 0 0-.73-.602 4.85 4.85 0 0 0-5.367 0 5 5 0 0 0-.73.602l-34.13 34.129a4.7 4.7 0 0 0-.601.734 4.7 4.7 0 0 0-.719 1.739 4.8 4.8 0 0 0 0 1.886 4.9 4.9 0 0 0 .719 1.739q.263.396.601.734l23.07 23.063A114.3 114.3 0 0 0 74.88 158.07H42.262a4.9 4.9 0 0 0-1.848.367 4.5 4.5 0 0 0-.832.45 4.9 4.9 0 0 0-1.332 1.328 4.9 4.9 0 0 0-.723 1.742q-.089.465-.09.941v48.266c0 .316.032.633.09.941q.096.469.278.907.181.438.445.836a4.86 4.86 0 0 0 2.164 1.777 4.9 4.9 0 0 0 1.848.367h32.617a114.3 114.3 0 0 0 12.387 29.883l-23.07 23.063a4.8 4.8 0 0 0-1.047 1.57 4.9 4.9 0 0 0-.368 1.847q0 .475.094.942a4.7 4.7 0 0 0 .719 1.738c.176.266.375.508.601.735l34.13 34.128c.222.223.468.426.73.602q.397.264.836.445a4.85 4.85 0 0 0 4.53-.445q.396-.266.731-.602l23.067-23.07a114.1 114.1 0 0 0 29.883 12.387v32.613q0 .48.093.942a4.9 4.9 0 0 0 .72 1.742 4.9 4.9 0 0 0 1.331 1.332q.398.264.836.445a4.9 4.9 0 0 0 1.848.367h48.265q.475 0 .942-.094a4.7 4.7 0 0 0 1.738-.719c.266-.175.508-.378.73-.6.227-.223.426-.47.602-.731a4.9 4.9 0 0 0 .723-1.742q.089-.464.09-.942v-32.613a114.1 114.1 0 0 0 29.882-12.387l23.067 23.07c.222.223.469.426.73.602q.398.264.836.445a4.8 4.8 0 0 0 1.848.363 4.75 4.75 0 0 0 1.847-.363q.438-.181.836-.445c.262-.176.508-.379.73-.602l34.134-34.128a4.9 4.9 0 0 0 1.043-1.567 5 5 0 0 0 .273-.906 4.8 4.8 0 0 0 0-1.887 4.6 4.6 0 0 0-.273-.902 4.9 4.9 0 0 0-1.043-1.57l-23.07-23.063a114.1 114.1 0 0 0 12.382-29.883h32.617q.477 0 .942-.094a5 5 0 0 0 .906-.273q.438-.18.836-.45.392-.263.73-.597.334-.339.598-.73.268-.398.45-.836a4.9 4.9 0 0 0 .366-1.848v-48.266a4.9 4.9 0 0 0-.367-1.848 4.7 4.7 0 0 0-.449-.835 5 5 0 0 0-.598-.73 5 5 0 0 0-.73-.598 4.7 4.7 0 0 0-.836-.45 4.9 4.9 0 0 0-1.848-.367m-4.829 48.266h-31.594c-.55 0-1.082.094-1.601.273q-.778.274-1.422.793a4.8 4.8 0 0 0-1.074 1.215 4.7 4.7 0 0 0-.613 1.504 104.5 104.5 0 0 1-14.043 33.883q-.44.691-.63 1.496a4.7 4.7 0 0 0-.097 1.621q.088.819.445 1.563.357.738.942 1.324l22.347 22.347-27.308 27.305-22.348-22.348a4.8 4.8 0 0 0-1.324-.937 4.8 4.8 0 0 0-1.559-.45 4.9 4.9 0 0 0-1.62.098 4.7 4.7 0 0 0-1.497.633 104.6 104.6 0 0 1-33.883 14.04 4.8 4.8 0 0 0-2.722 1.69 4.8 4.8 0 0 0-1.063 3.02v31.598h-38.613v-31.598q.001-.822-.274-1.601a4.7 4.7 0 0 0-.789-1.418q-.516-.646-1.214-1.078a4.8 4.8 0 0 0-1.504-.614 104.5 104.5 0 0 1-33.883-14.039 4.81 4.81 0 0 0-6.004.656l-22.348 22.348-27.304-27.305 22.347-22.347q.58-.585.938-1.324a4.81 4.81 0 0 0-.281-4.68 104.6 104.6 0 0 1-14.04-33.883 4.9 4.9 0 0 0-.613-1.504 4.7 4.7 0 0 0-1.078-1.215 4.8 4.8 0 0 0-1.422-.793 4.8 4.8 0 0 0-1.597-.273H47.09v-38.61h31.597c.547 0 1.083-.093 1.598-.273q.779-.276 1.422-.793a4.7 4.7 0 0 0 1.078-1.215q.433-.699.613-1.504a104.6 104.6 0 0 1 14.04-33.882q.444-.692.632-1.496a4.81 4.81 0 0 0-1.289-4.508l-22.347-22.348 27.304-27.305 22.348 22.348a4.81 4.81 0 0 0 6.004.656q15.7-10.014 33.883-14.039a4.8 4.8 0 0 0 2.718-1.691c.344-.426.61-.903.79-1.418q.274-.78.273-1.602V47.06h38.613v31.597q-.001.821.274 1.602c.183.515.445.992.789 1.418q.516.645 1.215 1.078.7.435 1.507.613a104.6 104.6 0 0 1 33.883 14.04q.692.444 1.496.632a4.81 4.81 0 0 0 4.504-1.289l22.348-22.348 27.308 27.305-22.347 22.348q-.584.585-.942 1.324a4.8 4.8 0 0 0-.445 1.562 4.7 4.7 0 0 0 .098 1.621q.189.805.629 1.497a104.5 104.5 0 0 1 14.043 33.882q.175.806.613 1.504a4.85 4.85 0 0 0 2.496 2.008c.52.18 1.05.274 1.601.274h31.594Zm0 0"/></g><path fill="#476786" d="M187.063 95.324c-50.567 0-91.708 41.14-91.708 91.707s41.141 91.707 91.708 91.707 91.703-41.14 91.703-91.707-41.137-91.707-91.704-91.707m0 173.758c-45.247 0-82.055-36.809-82.055-82.05 0-45.243 36.808-82.052 82.055-82.052 45.242 0 82.05 36.81 82.05 82.051s-36.808 82.051-82.05 82.051m0 0"/><path fill="#476786" d="M187.063 114.633a72 72 0 0 0-7.098.347q-1.77.176-3.528.434a74 74 0 0 0-6.969 1.387q-1.72.433-3.425.949a72.4 72.4 0 0 0-19.203 9.082 76 76 0 0 0-2.906 2.047 69 69 0 0 0-2.801 2.187 69 69 0 0 0-2.692 2.32 76 76 0 0 0-2.574 2.45 72.5 72.5 0 0 0-6.957 8.066 72 72 0 0 0-7.297 12.176 71 71 0 0 0-2.718 6.563 74 74 0 0 0-2.063 6.8 70 70 0 0 0-.777 3.465 71 71 0 0 0-1.043 7.028 72 72 0 0 0-.262 3.546 72 72 0 0 0-.09 3.551q0 1.776.09 3.551a72 72 0 0 0 .262 3.547 72 72 0 0 0 2.77 13.918 73 73 0 0 0 2.39 6.691 73 73 0 0 0 4.79 9.512 72 72 0 0 0 6.136 8.71 72 72 0 0 0 10.035 10.036c.914.754 1.847 1.48 2.8 2.188a76 76 0 0 0 2.907 2.046q1.476.986 3 1.899a73 73 0 0 0 6.266 3.352 75 75 0 0 0 6.566 2.718 72.4 72.4 0 0 0 10.266 2.84q1.741.346 3.5.61 1.757.257 3.527.433a72 72 0 0 0 7.097.348 72 72 0 0 0 7.094-.348 76 76 0 0 0 3.528-.434 76 76 0 0 0 3.504-.609c1.16-.23 2.316-.492 3.464-.777a74 74 0 0 0 6.801-2.063 72 72 0 0 0 3.313-1.281 73 73 0 0 0 3.25-1.438 75 75 0 0 0 3.175-1.597 75 75 0 0 0 6.094-3.652 76 76 0 0 0 2.903-2.047 72 72 0 0 0 8.066-6.957q1.259-1.258 2.453-2.575a80 80 0 0 0 2.32-2.691q1.126-1.377 2.184-2.8a71 71 0 0 0 2.047-2.907 73 73 0 0 0 6.691-12.516c.453-1.097.88-2.199 1.278-3.316a70 70 0 0 0 2.062-6.8 70 70 0 0 0 1.387-6.966 72 72 0 0 0 .699-7.074q.084-1.776.086-3.55a72 72 0 0 0-.793-10.618 71 71 0 0 0-.613-3.5 71 71 0 0 0-.782-3.469 74 74 0 0 0-.949-3.422 68 68 0 0 0-1.117-3.37 67 67 0 0 0-1.281-3.313 69 69 0 0 0-1.442-3.25 73 73 0 0 0-3.348-6.262 72 72 0 0 0-3.95-5.902 69 69 0 0 0-2.186-2.801 69 69 0 0 0-2.32-2.691 69 69 0 0 0-2.45-2.575 76 76 0 0 0-2.57-2.449 80 80 0 0 0-2.691-2.32 69 69 0 0 0-2.801-2.184 68 68 0 0 0-2.902-2.047 71 71 0 0 0-3-1.902 73 73 0 0 0-12.824-6.074 74 74 0 0 0-10.262-2.848 75 75 0 0 0-3.5-.61 72 72 0 0 0-3.524-.437 72 72 0 0 0-7.094-.355m0 135.144q-3.082 0-6.153-.3a63 63 0 0 1-12.062-2.403A61 61 0 0 1 163.05 245a62.7 62.7 0 0 1-28.16-23.11 62.7 62.7 0 0 1-5.801-10.847 64 64 0 0 1-2.074-5.797 64 64 0 0 1-1.496-5.973 64 64 0 0 1-.903-6.093 62 62 0 0 1-.3-6.149c0-2.054.097-4.105.3-6.148q.304-3.07.903-6.094a64 64 0 0 1 1.496-5.973 64 64 0 0 1 2.074-5.796 62.7 62.7 0 0 1 5.8-10.848 61 61 0 0 1 3.669-4.945 62.64 62.64 0 0 1 24.492-18.165 61 61 0 0 1 5.797-2.074 63 63 0 0 1 12.063-2.402q3.07-.3 6.151-.3 3.083 0 6.149.3a63 63 0 0 1 6.09.906q3.023.6 5.976 1.496a61 61 0 0 1 5.797 2.075 62 62 0 0 1 5.567 2.632 62.7 62.7 0 0 1 22.594 20.477 62.7 62.7 0 0 1 5.796 10.848 63 63 0 0 1 3.57 11.77q.605 3.022.903 6.093.305 3.066.305 6.148a62.6 62.6 0 0 1-1.219 12.234 62.7 62.7 0 0 1-6.211 17.329 64 64 0 0 1-3.168 5.281 62 62 0 0 1-3.668 4.941 64 64 0 0 1-4.133 4.563 62 62 0 0 1-4.562 4.133 61 61 0 0 1-4.946 3.668 62.3 62.3 0 0 1-10.84 5.8 62.6 62.6 0 0 1-11.766 3.578 63 63 0 0 1-12.233 1.22m0 0"/></svg>