<svg xmlns="http://www.w3.org/2000/svg" width="500" height="500" version="1.0" viewBox="0 0 375.12 383.04"><defs><clipPath id="a"><path d="M78.242 37.406H295.95v299.25H78.242Zm0 0"/></clipPath></defs><g clip-path="url(#a)"><path fill="#476786" d="M247.055 44.043a22.6 22.6 0 0 0-3.387-2.777 22.5 22.5 0 0 0-3.86-2.063 22.3 22.3 0 0 0-8.538-1.715H100.516q-1.094 0-2.184.106a22.3 22.3 0 0 0-4.281.851c-.7.211-1.383.457-2.059.739-.676.277-1.332.59-1.976.933q-.962.516-1.875 1.125c-.606.403-1.192.84-1.754 1.301a21 21 0 0 0-1.621 1.469 23 23 0 0 0-1.47 1.617q-.69.849-1.3 1.758a22.3 22.3 0 0 0-3.645 10.191 21 21 0 0 0-.109 2.18V314.3q-.001 1.097.11 2.183.104 1.092.32 2.164a22 22 0 0 0 1.266 4.176 22.3 22.3 0 0 0 2.058 3.852q.61.908 1.3 1.758.697.843 1.47 1.617a21 21 0 0 0 1.62 1.469c.563.46 1.15.898 1.755 1.3q.913.61 1.875 1.125c.644.344 1.3.657 1.976.934q1.012.421 2.059.738c.699.211 1.402.387 2.12.531q1.072.211 2.161.32 1.089.106 2.184.106H273.59c.726 0 1.457-.035 2.183-.105.723-.074 1.446-.18 2.16-.32q1.072-.216 2.122-.532c.699-.21 1.382-.457 2.058-.738q1.009-.417 1.977-.934a22 22 0 0 0 1.87-1.125c.61-.402 1.196-.84 1.759-1.3s1.101-.954 1.62-1.47a22 22 0 0 0 1.466-1.616q.696-.85 1.304-1.758a22.6 22.6 0 0 0 2.055-3.852 22.2 22.2 0 0 0 1.59-6.34c.07-.722.11-1.453.11-2.183V102.27a22.14 22.14 0 0 0-3.727-12.352 22 22 0 0 0-2.766-3.367Zm27.043 45.293H253.78a9.6 9.6 0 0 1-3.652-.727 9.7 9.7 0 0 1-3.098-2.07 10 10 0 0 1-1.187-1.445 9.6 9.6 0 0 1-.88-1.653 9.3 9.3 0 0 1-.542-1.789 9.4 9.4 0 0 1-.184-1.863V59.25Zm9.035 224.965q.002.944-.184 1.863c-.12.617-.3 1.211-.543 1.793a9.4 9.4 0 0 1-2.066 3.094 9.4 9.4 0 0 1-1.45 1.187 9.5 9.5 0 0 1-3.441 1.426 9.6 9.6 0 0 1-1.86.184H100.517a9.7 9.7 0 0 1-1.864-.184 9.6 9.6 0 0 1-3.441-1.426 9.5 9.5 0 0 1-2.633-2.633 9.7 9.7 0 0 1-.883-1.648 9.6 9.6 0 0 1-.727-3.656V59.758a9.6 9.6 0 0 1 .727-3.653 9.7 9.7 0 0 1 .883-1.648 9.4 9.4 0 0 1 1.188-1.445 9.54 9.54 0 0 1 6.75-2.797h130.992v29.574a22.6 22.6 0 0 0 .43 4.344 22 22 0 0 0 1.269 4.18q.417 1.011.934 1.976.516.96 1.12 1.875.609.91 1.305 1.754.692.848 1.465 1.621.779.773 1.621 1.469a22 22 0 0 0 1.758 1.3c.606.407 1.23.778 1.871 1.126a23 23 0 0 0 1.977.933 22.6 22.6 0 0 0 4.18 1.266c.714.144 1.437.25 2.16.32.726.074 1.457.11 2.183.11h29.336v.207Zm0 0"/></g><path fill="#476786" d="M187.059 130.031a57 57 0 0 0-11.118 1.094q-2.746.544-5.43 1.36a56.3 56.3 0 0 0-10.32 4.277 56.6 56.6 0 0 0-9.293 6.207 57.2 57.2 0 0 0-11.234 12.394 57 57 0 0 0-2.875 4.797 57.5 57.5 0 0 0-4.277 10.324 59 59 0 0 0-1.36 5.426 58 58 0 0 0-.82 5.535 57 57 0 0 0-.273 5.586q0 2.801.273 5.586.276 2.788.82 5.535.551 2.748 1.36 5.426a57.5 57.5 0 0 0 4.277 10.324 57 57 0 0 0 2.875 4.797 58 58 0 0 0 3.332 4.492 57.2 57.2 0 0 0 12.395 11.234 56 56 0 0 0 4.8 2.876 56.3 56.3 0 0 0 10.32 4.277q2.683.814 5.43 1.36 2.743.544 5.532.82c1.859.183 3.718.273 5.586.273a56.9 56.9 0 0 0 16.546-2.453 56.3 56.3 0 0 0 10.324-4.277 56 56 0 0 0 4.801-2.875 57.2 57.2 0 0 0 15.727-15.727 58 58 0 0 0 2.875-4.797 58 58 0 0 0 2.39-5.058 56 56 0 0 0 1.883-5.266 56 56 0 0 0 1.36-5.426q.55-2.746.824-5.535a58 58 0 0 0 .274-5.586 57.6 57.6 0 0 0-1.105-11.117 57.5 57.5 0 0 0-3.25-10.687 57.2 57.2 0 0 0-8.602-14.34 58 58 0 0 0-3.758-4.145 57 57 0 0 0-4.145-3.754 57.3 57.3 0 0 0-9.285-6.21 57.4 57.4 0 0 0-10.316-4.278 57 57 0 0 0-10.957-2.191 57 57 0 0 0-5.586-.278m0 101.274q-2.174 0-4.34-.211a44 44 0 0 1-4.297-.64 43 43 0 0 1-4.215-1.056 45 45 0 0 1-4.09-1.46 46 46 0 0 1-3.93-1.86 45 45 0 0 1-3.726-2.234 45 45 0 0 1-3.488-2.586 45 45 0 0 1-3.22-2.918 44 44 0 0 1-2.917-3.223 44.3 44.3 0 0 1-4.824-7.215 44.7 44.7 0 0 1-3.32-8.02 43 43 0 0 1-1.055-4.214 43 43 0 0 1-.637-4.297 44 44 0 0 1-.215-4.34q-.001-2.175.215-4.34.21-2.163.637-4.296a43 43 0 0 1 1.054-4.215 44.7 44.7 0 0 1 3.32-8.02 44.3 44.3 0 0 1 4.824-7.215 44 44 0 0 1 2.919-3.222 45 45 0 0 1 3.219-2.918 45 45 0 0 1 3.488-2.586 45 45 0 0 1 3.726-2.235 46 46 0 0 1 3.93-1.859 44.7 44.7 0 0 1 8.305-2.52 46 46 0 0 1 4.297-.636 45 45 0 0 1 8.68 0 46 46 0 0 1 4.3.636 45 45 0 0 1 8.305 2.52 45 45 0 0 1 3.926 1.86 44 44 0 0 1 3.726 2.234 44 44 0 0 1 3.492 2.586 46 46 0 0 1 3.22 2.918 46 46 0 0 1 2.917 3.222 45 45 0 0 1 2.59 3.489 45 45 0 0 1 2.23 3.726 44 44 0 0 1 1.86 3.93 45 45 0 0 1 1.465 4.09 44.3 44.3 0 0 1 1.906 12.852 44.3 44.3 0 0 1-1.918 12.848 45 45 0 0 1-1.465 4.089 44.3 44.3 0 0 1-6.684 11.137 43 43 0 0 1-2.917 3.218 46 46 0 0 1-3.215 2.918 45 45 0 0 1-3.489 2.586 44 44 0 0 1-3.726 2.234 44 44 0 0 1-3.926 1.86 44 44 0 0 1-4.09 1.465 44.4 44.4 0 0 1-8.508 1.703 45 45 0 0 1-4.34.215m0 0"/><path fill="#476786" d="M180.695 160.004h12.727v30.828h-12.727Zm0 41.949h12.727v12.106h-12.727Zm0 0"/></svg>