<svg xmlns="http://www.w3.org/2000/svg" width="500" height="500" version="1.0" viewBox="0 0 375.12 383.04"><defs><clipPath id="a"><path d="M37.715 193H92v112.43H37.715Zm0 0"/></clipPath><clipPath id="b"><path d="M119 159.398h54.043V305.43H119Zm0 0"/></clipPath><clipPath id="c"><path d="M201 204.777h53.887V305.43H201Zm0 0"/></clipPath><clipPath id="d"><path d="M282.438 144.004h54.003V305.43h-54.003Zm0 0"/></clipPath><clipPath id="e"><path d="M293 68.64h34V102h-34Zm0 0"/></clipPath></defs><g clip-path="url(#a)"><path fill="#476786" fill-rule="evenodd" d="M86.645 305.43H42.383a4.67 4.67 0 0 1-4.668-4.668V197.898a4.665 4.665 0 0 1 4.668-4.664h44.262a4.667 4.667 0 0 1 4.668 4.664v102.864a4.67 4.67 0 0 1-4.668 4.668m-39.594-9.332h34.926v-93.532H47.05z"/></g><g clip-path="url(#b)"><path fill="#476786" fill-rule="evenodd" d="M168.355 305.43h-44.261a4.665 4.665 0 0 1-4.668-4.668V164.438a4.665 4.665 0 0 1 4.668-4.668h44.261a4.667 4.667 0 0 1 4.665 4.667v136.325a4.667 4.667 0 0 1-4.665 4.668m-39.593-9.332h34.922V169.105h-34.922z"/></g><g clip-path="url(#c)"><path fill="#476786" fill-rule="evenodd" d="M250.063 305.43H205.8a4.665 4.665 0 0 1-4.664-4.668v-91.285a4.665 4.665 0 0 1 4.664-4.668h44.262a4.665 4.665 0 0 1 4.664 4.668v91.285a4.665 4.665 0 0 1-4.665 4.668m-39.594-9.332h34.926v-81.953h-34.926z"/></g><g clip-path="url(#d)"><path fill="#476786" fill-rule="evenodd" d="M331.77 305.43h-44.258a4.67 4.67 0 0 1-4.668-4.668V149.113a4.667 4.667 0 0 1 4.668-4.664h44.258a4.67 4.67 0 0 1 4.671 4.664v151.649a4.67 4.67 0 0 1-4.671 4.668m-39.59-9.332h34.925V153.78H292.18z"/></g><path fill="#476786" fill-rule="evenodd" d="M218.66 162.516a4.64 4.64 0 0 1-2.89-1.008l-63.18-50.055a4.666 4.666 0 0 1-.758-6.558 4.665 4.665 0 0 1 6.555-.762l63.18 50.055a4.67 4.67 0 0 1-2.907 8.328m-144.234-10.68a4.668 4.668 0 0 1-2.551-8.582l61.895-40.266a4.67 4.67 0 0 1 6.46 1.367 4.676 4.676 0 0 1-1.367 6.461l-61.898 40.262a4.64 4.64 0 0 1-2.54.758m161.95 9.754a4.67 4.67 0 0 1-3.266-8.004l64.82-63.516a4.67 4.67 0 0 1 6.602.067 4.673 4.673 0 0 1-.066 6.601l-64.824 63.516a4.64 4.64 0 0 1-3.266 1.336"/><path fill="#476786" fill-rule="evenodd" d="M64.516 170.105c-9.098 0-16.493-7.394-16.493-16.488s7.399-16.492 16.493-16.492c9.09 0 16.488 7.398 16.488 16.492s-7.399 16.488-16.488 16.488m0-23.644c-3.946 0-7.157 3.21-7.157 7.156 0 3.942 3.211 7.153 7.157 7.153 3.941 0 7.152-3.211 7.152-7.153 0-3.945-3.211-7.156-7.152-7.156m81.707-29.52c-9.09 0-16.489-7.398-16.489-16.488s7.399-16.488 16.489-16.488 16.488 7.398 16.488 16.488-7.399 16.488-16.488 16.488m0-23.64c-3.946 0-7.157 3.203-7.157 7.148 0 3.946 3.211 7.153 7.157 7.153a7.16 7.16 0 0 0 7.152-7.153c0-3.945-3.207-7.148-7.152-7.148m81.707 88.379c-9.09 0-16.485-7.395-16.485-16.485 0-9.093 7.395-16.488 16.485-16.488 9.093 0 16.492 7.395 16.492 16.488 0 9.09-7.399 16.485-16.492 16.485m0-23.64c-3.946 0-7.149 3.21-7.149 7.155a7.154 7.154 0 0 0 7.149 7.149c3.949 0 7.156-3.207 7.156-7.149a7.163 7.163 0 0 0-7.156-7.156"/><g clip-path="url(#e)"><path fill="#476786" fill-rule="evenodd" d="M309.64 101.617c-9.09 0-16.488-7.394-16.488-16.484s7.399-16.488 16.489-16.488c9.093 0 16.488 7.398 16.488 16.488s-7.395 16.484-16.488 16.484m0-23.64c-3.94 0-7.152 3.207-7.152 7.152s3.211 7.152 7.153 7.152c3.945 0 7.156-3.207 7.156-7.152s-3.211-7.152-7.156-7.152"/></g></svg>