<svg xmlns="http://www.w3.org/2000/svg" width="500" height="500" version="1.0" viewBox="0 0 375.12 383.04"><defs><clipPath id="a"><path d="M70 37.406h234v299.25H70Zm0 0"/></clipPath></defs><g clip-path="url(#a)"><path fill="#476786" d="M303.867 75.277c0-24.87-58.715-37.87-116.812-37.87-58.094 0-116.809 13-116.809 37.87v148.18c0 .309.102.621.102.93h-.102v74.191c0 24.871 58.715 37.871 116.809 37.871 58.097 0 116.812-13 116.812-37.87v-74.192h-.101c0-.309.101-.621.101-.93Zm-10.32 223.301c0 11.559-40.45 27.555-106.492 27.555-66.04 0-106.489-15.996-106.489-27.555V240.07c19.293 14.035 63.153 21.36 106.489 21.36 43.34 0 87.195-7.325 106.492-21.36Zm0-75.121c0 11.559-40.45 27.656-106.492 27.656-66.04 0-106.489-16.097-106.489-27.656V165.98c19.293 14.137 63.149 21.36 106.489 21.36s87.195-7.223 106.492-21.36Zm0-73.988c0 11.558-40.45 27.554-106.492 27.554-66.04 0-106.489-15.996-106.489-27.554V91.89c19.293 14.035 63.153 21.359 106.489 21.359 43.34 0 87.195-7.324 106.492-21.36Zm-106.492-46.535c-66.04 0-106.489-16.098-106.489-27.657 0-11.453 40.45-27.55 106.489-27.55 66.043 0 106.492 16.097 106.492 27.55 0 11.559-40.45 27.657-106.492 27.657m0 0"/></g><path fill="#476786" d="M187.055 147.715v10.32c14.066 0 27.8-.754 40.824-2.23l-1.156-10.246c-12.641 1.433-25.985 2.156-39.668 2.156m22.175-17.953.633 10.297c6.2-.371 12.227-.899 18.016-1.547l-1.156-10.258a331 331 0 0 1-17.493 1.508m17.48 91.664c-12.64 1.433-25.98 2.156-39.655 2.156v10.316c14.066 0 27.8-.75 40.824-2.226Zm1.169-7.039-1.156-10.258a329 329 0 0 1-17.48 1.508l.628 10.297a350 350 0 0 0 18.008-1.547m-40.824 85.07v10.316c14.054 0 27.78-.742 40.824-2.214l-1.156-10.258c-12.66 1.433-26.004 2.156-39.668 2.156m22.187-17.957.621 10.3a333 333 0 0 0 18.024-1.55l-1.164-10.246a316 316 0 0 1-17.48 1.496M102.957 116.758c0 3.613-2.992 6.605-6.605 6.605-3.715 0-6.707-2.992-6.707-6.605a6.693 6.693 0 0 1 6.707-6.707c3.613 0 6.605 2.992 6.605 6.707m0 24.871c0 3.715-2.992 6.707-6.605 6.707a6.693 6.693 0 0 1-6.707-6.707 6.693 6.693 0 0 1 6.707-6.707c3.613 0 6.605 2.992 6.605 6.707m0 52.523c0 3.61-2.992 6.602-6.605 6.602-3.715 0-6.707-2.992-6.707-6.602a6.693 6.693 0 0 1 6.707-6.707c3.613 0 6.605 2.993 6.605 6.707m0 24.868c0 3.714-2.992 6.707-6.605 6.707a6.693 6.693 0 0 1-6.707-6.707 6.693 6.693 0 0 1 6.707-6.708c3.613 0 6.605 2.993 6.605 6.708m0 49.43c0 3.714-2.992 6.706-6.605 6.706a6.693 6.693 0 0 1-6.707-6.707c0-3.613 2.992-6.605 6.707-6.605 3.613 0 6.605 2.992 6.605 6.605m0 24.867c0 3.715-2.992 6.707-6.605 6.707a6.693 6.693 0 0 1-6.707-6.707c0-3.613 2.992-6.605 6.707-6.605 3.613 0 6.605 2.992 6.605 6.605m0 0"/></svg>