<svg xmlns="http://www.w3.org/2000/svg" width="500" height="500" version="1.0" viewBox="0 0 375.12 383.04"><defs><clipPath id="a"><path d="M37.438 47.742h299.25v278.305H37.438Zm0 0"/></clipPath></defs><g clip-path="url(#a)"><path fill="#476786" d="M319.64 47.742H54.48q-.838.002-1.675.086a17 17 0 0 0-3.293.656q-.803.248-1.582.57a17.3 17.3 0 0 0-2.953 1.59 17 17 0 0 0-2.586 2.141q-.593.6-1.125 1.25-.529.652-.993 1.356-.462.701-.855 1.445a17 17 0 0 0-.707 1.523q-.318.782-.555 1.586-.24.808-.398 1.633-.16.826-.23 1.664-.077.84-.071 1.68v179.68a17 17 0 0 0 .734 4.941q.24.802.563 1.574t.715 1.508q.391.737.86 1.434.462.695.995 1.343a17 17 0 0 0 2.36 2.36q.644.527 1.34.992.695.468 1.433.86.738.397 1.512.714a17 17 0 0 0 3.191.969 17 17 0 0 0 3.32.328h111.07v28.578h-17.437a14.8 14.8 0 0 0-6.828 1.59q-1.055.53-2.012 1.223-.96.69-1.796 1.527a15 15 0 0 0-1.532 1.789 14.9 14.9 0 0 0-2.12 4.191l-1.86 5.98a16 16 0 0 0-.485 1.72 15 15 0 0 0-.273 1.765c-.059.59-.078 1.188-.066 1.782q.023.894.152 1.777a14.6 14.6 0 0 0 .93 3.441 14.8 14.8 0 0 0 2.843 4.504 14.84 14.84 0 0 0 5.887 3.926c.559.203 1.129.375 1.711.508q.867.206 1.758.3c.594.067 1.187.094 1.781.09h81.715q.879-.001 1.746-.101a14 14 0 0 0 1.723-.305q.85-.199 1.675-.504.822-.298 1.602-.695a14 14 0 0 0 1.512-.879q.731-.485 1.398-1.05.673-.563 1.27-1.208c.394-.426.77-.875 1.113-1.344q.522-.707.95-1.468a14.6 14.6 0 0 0 1.355-3.219c.164-.563.293-1.129.386-1.707q.142-.863.184-1.738a15 15 0 0 0-.023-1.75 14.4 14.4 0 0 0-.653-3.43l-1.855-5.984q-.362-1.125-.899-2.18a14.8 14.8 0 0 0-4.554-5.324 14.5 14.5 0 0 0-2.012-1.227 15 15 0 0 0-2.18-.887 14.8 14.8 0 0 0-4.648-.7l-17.434.001v-28.992h111.067a17 17 0 0 0 4.941-.734q.802-.24 1.574-.563a16 16 0 0 0 1.508-.715 17.5 17.5 0 0 0 2.777-1.852q.646-.533 1.239-1.124a16.8 16.8 0 0 0 2.972-4.012q.399-.739.715-1.508.323-.772.563-1.574.244-.802.406-1.621a17 17 0 0 0 .328-3.32V64.922a17 17 0 0 0-.066-1.68 17 17 0 0 0-.63-3.297 17 17 0 0 0-1.266-3.11 15 15 0 0 0-.854-1.444 16.96 16.96 0 0 0-6.14-5.613 17 17 0 0 0-3.099-1.294q-.803-.245-1.629-.41t-1.66-.246a17 17 0 0 0-1.68-.086m-93.632 252.781a5.1 5.1 0 0 1 2.926 1.008 5 5 0 0 1 1.101 1.11q.468.639.719 1.39l1.91 5.985a5.12 5.12 0 0 1-.773 4.434 5.1 5.1 0 0 1-1.758 1.456 5.1 5.1 0 0 1-2.215.555h-81.715a5.1 5.1 0 0 1-2.215-.555 5.1 5.1 0 0 1-1.758-1.457 5.1 5.1 0 0 1-.894-2.129 5.1 5.1 0 0 1 .121-2.304l1.91-5.985q.25-.751.719-1.39.469-.64 1.101-1.11a5 5 0 0 1 1.387-.73 5 5 0 0 1 1.54-.278Zm-50.504-10.32v-28.578h23.113v28.578Zm151.203-45.707q.002.698-.137 1.379-.134.684-.398 1.328-.27.644-.656 1.223-.387.576-.88 1.07a7 7 0 0 1-2.292 1.531 7.1 7.1 0 0 1-2.703.54H54.48q-.692-.001-1.38-.137a7 7 0 0 1-1.324-.403 7 7 0 0 1-2.293-1.531 7 7 0 0 1-.879-1.07 7 7 0 0 1-.652-1.223 7.1 7.1 0 0 1-.54-2.707l.001-179.574a7.1 7.1 0 0 1 1.262-3.828 7.3 7.3 0 0 1 .879-1.035 7.4 7.4 0 0 1 1.062-.852 7.4 7.4 0 0 1 1.207-.629q.632-.257 1.305-.387a7 7 0 0 1 1.351-.129h265.16q.696-.001 1.38.133c.453.094.898.227 1.324.403q.644.27 1.222.656.58.386 1.07.879.493.49.88 1.07.386.58.656 1.223.264.641.398 1.324c.094.457.137.914.137 1.379Zm0 0"/></g><path fill="#476786" d="M296.117 78.129H78.004A5.1 5.1 0 0 0 75.14 79a5.2 5.2 0 0 0-1.426 1.422 5.4 5.4 0 0 0-.477.89 5.1 5.1 0 0 0-.39 1.977v143.152a5.13 5.13 0 0 0 1.511 3.649 5.1 5.1 0 0 0 1.672 1.117q.47.199.969.293.499.1 1.004.102h218.113c.34 0 .672-.036 1.008-.102a4.7 4.7 0 0 0 .965-.293q.468-.194.894-.477.421-.282.782-.64a5.1 5.1 0 0 0 1.117-1.672q.193-.473.293-.969.1-.498.101-1.008V83.082a5 5 0 0 0-.136-.977 5 5 0 0 0-.317-.933 5.1 5.1 0 0 0-1.129-1.605 5.1 5.1 0 0 0-1.652-1.067 5.3 5.3 0 0 0-1.926-.371m-5.16 143.308h-208V88.087h208.207Zm0 0"/></svg>