<svg xmlns="http://www.w3.org/2000/svg" width="500" height="500" version="1.0" viewBox="0 0 375.12 383.04"><defs><clipPath id="a"><path d="M37.438 37.969h299.25v298.5H37.438Zm0 0"/></clipPath></defs><path fill="#446482" d="M279.219 174.457h-42.934a4.716 4.716 0 0 0-4.719 4.715v42.933a4.72 4.72 0 0 0 4.72 4.72h42.933a4.716 4.716 0 0 0 4.715-4.72v-42.933a4.713 4.713 0 0 0-4.715-4.715m-4.719 42.93h-33.496V183.89H274.5Zm0 0"/><g clip-path="url(#a)"><path fill="#446482" d="M331.816 204.957a4.716 4.716 0 1 0 0-9.434h-25.152V184.2h25.152a4.716 4.716 0 1 0 0-9.433h-25.152v-18.32a4.72 4.72 0 0 0-4.719-4.72h-12.27V124.59l19.884-9.074a4.72 4.72 0 0 0 2.761-4.293V75.39a4.72 4.72 0 0 0-9.437 0v32.8L283 117.266a4.71 4.71 0 0 0-2.758 4.289v30.172h-18.238v-46.239l21.969-11.308a4.72 4.72 0 0 0 2.558-4.196v-47.3a4.716 4.716 0 0 0-4.719-4.715 4.715 4.715 0 0 0-4.714 4.715v44.425l-21.973 11.309a4.72 4.72 0 0 0-2.559 4.195v49.114h-16.98v-29.793a4.72 4.72 0 0 0-2.184-3.98l-79.566-50.63a4.7 4.7 0 0 0-2.531-.738H93.809c-1.895-4.828-6.586-8.258-12.075-8.258-7.152 0-12.972 5.82-12.972 12.973 0 7.156 5.82 12.976 12.972 12.976 5.489 0 10.18-3.433 12.075-8.257h56.12l76.223 48.503v27.204H213.56a4.72 4.72 0 0 0-4.72 4.718v3.856h-65.038c-1.895-4.824-6.586-8.258-12.074-8.258-7.157 0-12.973 5.82-12.973 12.977 0 7.152 5.82 12.972 12.973 12.972 5.488 0 10.18-3.433 12.074-8.258h65.039v13.836H90.926a4.72 4.72 0 0 0 0 9.438H208.84v13.207h-78.918a4.72 4.72 0 0 0-4.332 2.844l-8.832 20.425H62.664c-1.894-4.824-6.586-8.254-12.074-8.254-7.153 0-12.973 5.82-12.973 12.973 0 7.152 5.82 12.973 12.973 12.973 5.488 0 10.18-3.43 12.074-8.254h57.191a4.72 4.72 0 0 0 4.332-2.848l8.833-20.426h75.82v13.836h-48.73a4.716 4.716 0 0 0-4.715 4.72 4.716 4.716 0 0 0 4.714 4.718h48.73v5.91a4.72 4.72 0 0 0 4.72 4.719h12.593v24.59h-93.714a4.74 4.74 0 0 0-2.961 1.043l-35.82 28.84a13 13 0 0 0-3.989-.633c-7.156 0-12.977 5.82-12.977 12.972 0 7.157 5.82 12.977 12.977 12.977 7.152 0 12.973-5.82 12.973-12.977 0-2.242-.57-4.351-1.575-6.191l33.032-26.594h96.77a4.72 4.72 0 0 0 4.718-4.719v-29.308h16.98v81.828a4.716 4.716 0 0 0 4.72 4.715 4.716 4.716 0 0 0 4.718-4.715V249.55h18.238v81.828a4.716 4.716 0 0 0 4.719 4.715 4.715 4.715 0 0 0 4.715-4.715V249.55h12.27a4.72 4.72 0 0 0 4.718-4.719V226.34h25.152a4.716 4.716 0 1 0 0-9.434h-25.152v-11.949ZM81.734 74.844a3.544 3.544 0 0 1-3.539-3.543c0-1.95 1.586-3.54 3.54-3.54s3.538 1.59 3.538 3.54a3.544 3.544 0 0 1-3.539 3.543m49.993 93.715a3.543 3.543 0 0 1-3.54-3.54 3.544 3.544 0 0 1 3.54-3.542 3.544 3.544 0 0 1 3.539 3.543 3.544 3.544 0 0 1-3.54 3.539M50.59 237.742a3.54 3.54 0 0 1-3.54-3.539 3.544 3.544 0 0 1 3.54-3.539 3.54 3.54 0 0 1 3.539 3.54 3.54 3.54 0 0 1-3.54 3.538m39.078 82.16a3.544 3.544 0 0 1-3.543-3.539 3.544 3.544 0 0 1 3.543-3.539 3.543 3.543 0 0 1 3.539 3.54 3.543 3.543 0 0 1-3.539 3.538m207.559-79.785h-78.954v-5.61q.014-.15.016-.304-.002-.152-.016-.305v-22.664q.014-.147.016-.3c0-.106-.008-.204-.016-.305v-22.035q.014-.153.016-.305-.002-.152-.016-.305V165.32q.014-.146.016-.304-.002-.154-.016-.301v-3.555h38.149a4.5 4.5 0 0 0 1.726 0h25.95q.419.082.863.082.44 0 .863-.082h11.406v78.957Zm0 0"/></g></svg>