<svg xmlns="http://www.w3.org/2000/svg" width="500" height="500" version="1.0" viewBox="0 0 375.12 383.04"><defs><clipPath id="a"><path d="M50.902 37.406H323.22v299.25H50.902Zm0 0"/></clipPath></defs><g clip-path="url(#a)"><path fill="#446482" fill-rule="evenodd" d="M187.059 220.465c-12.133 0-22-9.867-22-22 0-12.137 9.867-22.012 22-22.012 12.136 0 22.004 9.875 22.004 22.012 0 12.133-9.868 22-22.004 22m0-53.074c-17.13 0-31.063 13.941-31.063 31.074 0 17.129 13.934 31.062 31.063 31.062 17.132 0 31.07-13.933 31.07-31.062 0-17.133-13.938-31.074-31.07-31.074m59.734 56.578-9.203-10.215a4.55 4.55 0 0 1-1.055-4.04 51.25 51.25 0 0 0 0-22.507 4.53 4.53 0 0 1 1.055-4.031l9.203-10.223c.93-1.031 1.07-2.363.375-3.566l-4.875-8.442c-.691-1.203-1.918-1.75-3.27-1.457l-13.468 2.864a4.54 4.54 0 0 1-4.024-1.114c-5.554-5.14-12.289-9.035-19.472-11.258a4.52 4.52 0 0 1-2.973-2.921l-4.254-13.082c-.426-1.32-1.512-2.106-2.894-2.106h-9.754c-1.383 0-2.465.785-2.895 2.106l-4.258 13.082a4.5 4.5 0 0 1-2.965 2.921c-7.183 2.223-13.921 6.118-19.476 11.258a4.51 4.51 0 0 1-4.016 1.114l-13.476-2.864c-1.356-.293-2.578.254-3.27 1.457l-4.879 8.442c-.695 1.203-.554 2.527.375 3.566l9.207 10.223a4.54 4.54 0 0 1 1.051 4.031 51.25 51.25 0 0 0 0 22.508 4.56 4.56 0 0 1-1.05 4.039l-9.208 10.215c-.93 1.035-1.07 2.363-.375 3.566l4.88 8.442c.687 1.203 1.913 1.753 3.269 1.46l13.476-2.863a4.48 4.48 0 0 1 4.016 1.106c5.555 5.152 12.289 9.043 19.476 11.257a4.5 4.5 0 0 1 2.965 2.934l4.258 13.074c.43 1.325 1.512 2.114 2.895 2.114h9.754c1.382 0 2.468-.79 2.894-2.114l4.254-13.074a4.53 4.53 0 0 1 2.973-2.934c7.183-2.222 13.918-6.113 19.472-11.257a4.5 4.5 0 0 1 4.016-1.106l13.476 2.863c1.352.286 2.579-.257 3.27-1.46l4.875-8.442c.695-1.203.555-2.531-.375-3.566m-186.82-65.844c0 19.742 16.058 35.805 35.804 35.805h31.676a61 61 0 0 1 .809-6.39l-7.672-8.52a12.09 12.09 0 0 1-1.488-14.168l4.875-8.442a12.07 12.07 0 0 1 13.007-5.785l11.23 2.387a60.1 60.1 0 0 1 18.911-10.938l3.54-10.898a12.075 12.075 0 0 1 11.519-8.367h9.754c5.261 0 9.89 3.359 11.515 8.367l3.543 10.898a60.2 60.2 0 0 1 18.906 10.938l11.235-2.387a12.07 12.07 0 0 1 13.004 5.785l4.879 8.442a12.09 12.09 0 0 1-1.489 14.168l-7.676 8.52c.395 2.108.653 4.245.81 6.39h46.187c11.742 0 21.3-9.555 21.3-21.301 0-10.938-8.191-20.043-19.058-21.172-4.535-.477-5.586-6.672-1.457-8.613 7.613-3.582 12.539-11.332 12.539-19.746 0-16.953-18.563-27.399-33.035-18.703-2.465 1.484-5.711.3-6.63-2.43-11.241-33.156-42.32-55.434-77.35-55.434-41.653 0-76.532 31.172-81.138 72.508a4.534 4.534 0 0 1-5.37 3.95c-22.067-4.298-42.68 12.636-42.68 35.136m232 92.96c6.062 0 9.925 6.606 6.863 11.911-3.524 6.106-12.727 4.883-14.547-1.918-1.355-5.074 2.484-9.992 7.684-9.992M195 319.59c0 4.37-3.559 7.937-7.941 7.937-4.375 0-7.938-3.566-7.938-7.937 0-4.375 3.563-7.942 7.938-7.942 4.382 0 7.941 3.567 7.941 7.942M89.828 261.078c-1.785 6.774-11.008 8.047-14.543 1.918-3.066-5.316.809-11.91 6.867-11.91 5.18 0 9.047 4.906 7.676 9.992m203.024-58.082c16.746 0 30.363-13.621 30.363-30.367a30.29 30.29 0 0 0-17.305-27.434c14.488-14.187 11.899-38.62-6.324-48.93-8.25-4.663-17.75-5.328-26.277-2.023-13.758-34.16-46.954-56.77-84.145-56.77-44.719 0-82.41 32.333-89.516 75.95-11.664-1.016-23.265 2.547-32.425 10.098-10.368 8.55-16.317 21.164-16.317 34.605 0 24.742 20.125 44.871 44.871 44.871h31.676c.164 2.145.422 4.277.809 6.387l-7.672 8.527a12.07 12.07 0 0 0-1.488 14.156l.171.297-25.183 14.543c-9.25-9.086-24.988-4.832-28.352 7.719-2.91 10.848 5.297 21.402 16.453 21.402 11.098 0 19.239-10.554 16.43-21.273l25.18-14.543c2.793 4.797 7.8 7.234 13.18 6.094l11.234-2.387a60 60 0 0 0 18.91 10.93l3.54 10.902c1.69 5.207 6.327 8.367 11.862 8.367v29.078c-7.18 1.996-12.472 8.582-12.472 16.39 0 9.376 7.625 17.005 17.004 17.005s17.007-7.63 17.007-17.004c0-7.809-5.289-14.395-12.472-16.39v-29.079c5.531 0 10.164-3.16 11.86-8.367l3.542-10.902a60.4 60.4 0 0 0 18.906-10.93l11.235 2.387a12.08 12.08 0 0 0 13.004-5.797l.175-.297 25.18 14.543c-2.805 10.707 5.328 21.273 16.43 21.273 11.164 0 19.367-10.574 16.457-21.402-3.371-12.547-19.102-16.809-28.348-7.719l-25.187-14.543.168-.297a12.07 12.07 0 0 0-1.485-14.156l-7.676-8.527a60 60 0 0 0 .81-6.387Zm0 0"/></g></svg>