<svg xmlns="http://www.w3.org/2000/svg" width="500" height="500" version="1.0" viewBox="0 0 375.12 383.04"><defs><clipPath id="a"><path d="M40 42h296v294.656H40Zm0 0"/></clipPath></defs><g clip-path="url(#a)"><path fill="#446482" d="M285.293 204.355a51 51 0 0 0 4.863-.21 50 50 0 0 0 4.817-.692 48 48 0 0 0 4.726-1.156q2.338-.692 4.594-1.613a50 50 0 0 0 4.41-2.055 49.6 49.6 0 0 0 8.113-5.36 50 50 0 0 0 3.625-3.246 51 51 0 0 0 3.29-3.59 49.6 49.6 0 0 0 9.215-17.016 49 49 0 0 0 1.206-4.714q.491-2.384.743-4.808a49 49 0 0 0 .265-4.86 51 51 0 0 0-.21-4.863 51 51 0 0 0-.688-4.817 50 50 0 0 0-1.157-4.73 50 50 0 0 0-1.617-4.59 50 50 0 0 0-2.054-4.41 49.6 49.6 0 0 0-5.36-8.113 50 50 0 0 0-3.246-3.625 50 50 0 0 0-7.48-6.211 49.7 49.7 0 0 0-17.84-7.504 50 50 0 0 0-9.668-1.004 28 28 0 0 0-1.434-4.461 27.6 27.6 0 0 0-2.156-4.16 27.7 27.7 0 0 0-2.824-3.742 28 28 0 0 0-3.406-3.22 27.98 27.98 0 0 0-21.012-5.855 44 44 0 0 0-4.723-4.94 44.6 44.6 0 0 0-5.437-4.145 45 45 0 0 0-2.946-1.743 43 43 0 0 0-3.07-1.504 43 43 0 0 0-6.445-2.273 43 43 0 0 0-3.34-.754 43 43 0 0 0-3.383-.488 42 42 0 0 0-3.414-.223 43.5 43.5 0 0 0-6.828.356 43.8 43.8 0 0 0-9.93 2.504 69.6 69.6 0 0 0-6.805-7.863 68 68 0 0 0-7.914-6.747 68 68 0 0 0-8.843-5.476q-2.312-1.2-4.703-2.22a68 68 0 0 0-4.864-1.859 67 67 0 0 0-4.988-1.484q-2.52-.65-5.086-1.101a67 67 0 0 0-5.152-.715 68 68 0 0 0-10.399-.25c-1.734.09-3.46.242-5.183.465q-2.58.327-5.133.855-2.55.528-5.05 1.242a69 69 0 0 0-4.946 1.621 69 69 0 0 0-9.453 4.34q-2.275 1.266-4.45 2.695a67 67 0 0 0-4.238 3.024 68 68 0 0 0-3.992 3.336 68 68 0 0 0-7.176 7.527 67 67 0 0 0-3.14 4.149 68 68 0 0 0-2.817 4.375 69 69 0 0 0-2.48 4.574 70 70 0 0 0-2.125 4.754 70 70 0 0 0-1.758 4.894 70 70 0 0 0-1.383 5.02 68.5 68.5 0 0 0-1.61 10.273q-2.261.405-4.476 1.02c-1.473.41-2.93.886-4.36 1.43a49.6 49.6 0 0 0-12.04 6.605 50 50 0 0 0-6.816 6.14 50 50 0 0 0-5.566 7.29 50 50 0 0 0-2.253 4 51 51 0 0 0-1.875 4.191 51 51 0 0 0-1.48 4.344 49.5 49.5 0 0 0-1.953 13.594 50 50 0 0 0 .19 4.585q.208 2.29.618 4.551a50 50 0 0 0 1.035 4.469q.627 2.215 1.445 4.36a50.3 50.3 0 0 0 4.063 8.222 49 49 0 0 0 2.586 3.793 49 49 0 0 0 6.164 6.793 49.6 49.6 0 0 0 7.305 5.543q1.95 1.213 4.007 2.242a50 50 0 0 0 4.196 1.86 50 50 0 0 0 4.351 1.464q2.211.633 4.47 1.055a49.3 49.3 0 0 0 9.132.855h10.676v35.051q-.001 2.39-.418 4.739a27.5 27.5 0 0 1-1.23 4.593 27.46 27.46 0 0 1-11.941 14.352 27.4 27.4 0 0 1-8.876 3.32 19.5 19.5 0 0 0-3.45-5.875 19 19 0 0 0-1.578-1.644c-.558-.52-1.144-1-1.761-1.45A19.3 19.3 0 0 0 68 255.207q-1.05-.442-2.152-.754-1.097-.314-2.223-.5a19.3 19.3 0 0 0-4.55-.2 19.3 19.3 0 0 0-4.473.86q-1.085.344-2.13.813-1.042.473-2.019 1.058-.979.592-1.883 1.29-.902.696-1.718 1.5a19 19 0 0 0-1.532 1.687q-.715.89-1.324 1.855a19.8 19.8 0 0 0-1.957 4.113 20 20 0 0 0-.602 2.2q-.239 1.118-.343 2.254a19.3 19.3 0 0 0 .113 4.555q.159 1.128.453 2.234.294 1.102.711 2.164.422 1.064.961 2.07a19.6 19.6 0 0 0 4.223 5.344 19.8 19.8 0 0 0 3.738 2.605 19.5 19.5 0 0 0 6.473 2.118q1.13.159 2.273.183a19.3 19.3 0 0 0 4.531-.426q1.117-.241 2.2-.605a19.5 19.5 0 0 0 4.109-1.965 19 19 0 0 0 1.855-1.324q.885-.72 1.688-1.535a19.6 19.6 0 0 0 2.781-3.606q.585-.98 1.055-2.023.467-1.038.812-2.129a42 42 0 0 0 3.532-.645 39 39 0 0 0 3.457-.957 39.6 39.6 0 0 0 6.593-2.82 40 40 0 0 0 3.082-1.84q1.5-.99 2.907-2.11a41 41 0 0 0 5.183-4.952q1.184-1.355 2.239-2.809a38 38 0 0 0 1.98-2.992 40.3 40.3 0 0 0 3.117-6.457 40 40 0 0 0 1.113-3.414 39.7 39.7 0 0 0 1.293-7.055q.165-1.787.164-3.586v-35.05h42.715v94.308a19.6 19.6 0 0 0-5.992 3.29 19.8 19.8 0 0 0-3.203 3.266 20 20 0 0 0-1.29 1.89c-.394.652-.75 1.331-1.062 2.027-.316.695-.585 1.41-.816 2.14a19.3 19.3 0 0 0-.86 4.488 19.46 19.46 0 0 0 1.473 8.962q.446 1.053 1.008 2.054.569.996 1.242 1.922.681.927 1.461 1.766.782.837 1.656 1.582a19.6 19.6 0 0 0 3.805 2.527q1.025.522 2.102.914 1.078.397 2.191.664c.742.176 1.496.313 2.254.399.758.09 1.524.136 2.285.136q1.15 0 2.285-.136a19.5 19.5 0 0 0 6.547-1.977c.684-.344 1.34-.726 1.977-1.152a20 20 0 0 0 1.832-1.375 19.8 19.8 0 0 0 3.113-3.348q.68-.926 1.242-1.922a19.6 19.6 0 0 0 2.274-6.449q.187-1.13.238-2.277c.035-.762.027-1.528-.027-2.29a19 19 0 0 0-.301-2.269q-.211-1.126-.559-2.223a20 20 0 0 0-.816-2.136 19.5 19.5 0 0 0-3.86-5.645 20 20 0 0 0-1.695-1.539 20 20 0 0 0-1.867-1.328 20 20 0 0 0-2.004-1.102 20 20 0 0 0-2.125-.859v-94.309h42.73v73.704a20 20 0 0 0-2.12.855q-1.032.492-2.004 1.102a19 19 0 0 0-3.555 2.867 19.5 19.5 0 0 0-3.855 5.64q-.47 1.045-.817 2.137-.346 1.092-.559 2.219-.215 1.124-.296 2.266a19.5 19.5 0 0 0 .71 6.796q.317 1.103.762 2.157.446 1.056 1.008 2.054.563.996 1.242 1.922.677.921 1.457 1.762a19 19 0 0 0 1.656 1.578 19.4 19.4 0 0 0 3.801 2.527 19 19 0 0 0 2.098.914q1.079.398 2.191.66a19 19 0 0 0 4.536.536 19 19 0 0 0 4.535-.535 19 19 0 0 0 2.191-.66 19 19 0 0 0 2.098-.915 19 19 0 0 0 1.976-1.152 19 19 0 0 0 1.828-1.375 19.6 19.6 0 0 0 4.352-5.262 19 19 0 0 0 1.008-2.054q.445-1.054.762-2.157.315-1.102.503-2.234a19.3 19.3 0 0 0 .207-4.562 19 19 0 0 0-.296-2.266q-.213-1.127-.559-2.219a20 20 0 0 0-.816-2.137 19.5 19.5 0 0 0-3.852-5.64 20 20 0 0 0-1.695-1.54 19.6 19.6 0 0 0-3.868-2.429 20 20 0 0 0-2.12-.855v-73.704h38.773v28.141c.004 1.172.055 2.34.164 3.504a39.3 39.3 0 0 0 1.254 6.895 39 39 0 0 0 1.086 3.335 38 38 0 0 0 1.379 3.223 39 39 0 0 0 8.195 11.3 39 39 0 0 0 8.477 6.185 40 40 0 0 0 6.437 2.769 39.7 39.7 0 0 0 6.828 1.582q.342 1.092.813 2.137.469 1.048 1.054 2.031.586.986 1.29 1.895.697.908 1.495 1.73a20 20 0 0 0 1.692 1.543 20 20 0 0 0 1.863 1.332 19.2 19.2 0 0 0 4.121 1.973q1.083.374 2.207.613 1.119.24 2.262.348 1.141.11 2.29.086a20 20 0 0 0 2.28-.188 19 19 0 0 0 2.243-.45 19 19 0 0 0 2.175-.71 18 18 0 0 0 2.078-.961q1.015-.54 1.954-1.195.94-.658 1.8-1.414a19.7 19.7 0 0 0 3.04-3.414 19 19 0 0 0 1.199-1.95q.543-1.008.964-2.074.423-1.066.715-2.176.3-1.109.457-2.242a19.5 19.5 0 0 0-.23-6.832 19.4 19.4 0 0 0-1.469-4.328 19.6 19.6 0 0 0-2.43-3.871q-.72-.892-1.539-1.695a19.4 19.4 0 0 0-3.617-2.793 19.3 19.3 0 0 0-4.168-1.88 19.3 19.3 0 0 0-4.488-.86 19.5 19.5 0 0 0-4.566.208 19 19 0 0 0-2.23.5c-.735.211-1.458.465-2.161.758a19.2 19.2 0 0 0-3.98 2.25q-.928.677-1.766 1.457-.844.78-1.582 1.653a19.2 19.2 0 0 0-2.535 3.805q-.521 1.02-.918 2.093a26.63 26.63 0 0 1-12.309-5.941 27 27 0 0 1-3.223-3.286 27 27 0 0 1-2.609-3.789 27 27 0 0 1-3.094-8.633 27 27 0 0 1-.39-4.585v-28.141ZM60.465 280.152a7 7 0 0 1-1.363-.148 6.7 6.7 0 0 1-1.309-.406 7 7 0 0 1-1.203-.657 7 7 0 0 1-1.05-.878 6.8 6.8 0 0 1-1.5-2.278 7 7 0 0 1-.516-2.68 6.96 6.96 0 0 1 1.199-3.875q.382-.572.875-1.058.487-.482 1.062-.863a7 7 0 0 1 2.523-1.035 7 7 0 0 1 1.364-.13 6.9 6.9 0 0 1 2.676.54q.633.262 1.207.648a7.1 7.1 0 0 1 1.925 1.93 7.1 7.1 0 0 1 1.043 2.523 6.9 6.9 0 0 1-.007 2.735 6.8 6.8 0 0 1-.403 1.32q-.27.64-.656 1.215t-.879 1.062a6.7 6.7 0 0 1-1.07.871 7.2 7.2 0 0 1-2.543 1.04 7 7 0 0 1-1.375.124m102.234 43.996a7 7 0 0 1-2.676-.539 6.9 6.9 0 0 1-2.27-1.523 7 7 0 0 1-.866-1.063 7 7 0 0 1-.649-1.21 6.99 6.99 0 0 1 1.531-7.625q.488-.492 1.063-.872a7 7 0 0 1 1.211-.644 6.9 6.9 0 0 1 2.68-.531 6.9 6.9 0 0 1 2.676.535q.637.263 1.21.644a7.3 7.3 0 0 1 1.063.871c.324.329.613.68.867 1.063q.386.574.649 1.21.263.64.398 1.313a7 7 0 0 1-1.055 5.258 7 7 0 0 1-.87 1.063 7.1 7.1 0 0 1-2.278 1.52 7 7 0 0 1-2.684.53m55.238-20.605a7.03 7.03 0 0 1-5.843-3.11 7.02 7.02 0 0 1-1.059-5.273q.135-.676.399-1.316.262-.64.648-1.215c.254-.383.547-.738.871-1.067q.487-.487 1.063-.875a7.1 7.1 0 0 1 2.53-1.05 7.4 7.4 0 0 1 1.372-.137 7 7 0 0 1 2.687.535q.64.262 1.215.649a7 7 0 0 1 1.063.87c.328.329.617.684.875 1.067s.472.785.648 1.215q.266.638.403 1.316a7 7 0 0 1-.004 2.735 7 7 0 0 1-1.047 2.527 7.1 7.1 0 0 1-1.93 1.934 7 7 0 0 1-1.21.652 7.4 7.4 0 0 1-1.313.402q-.678.135-1.368.141m97.438-45.203a7.03 7.03 0 0 1 5.824 3.113 7 7 0 0 1 1.043 2.527q.136.676.137 1.368-.001.687-.137 1.363a7 7 0 0 1-1.914 3.586q-.49.491-1.062.871a7 7 0 0 1-1.211.648 7.1 7.1 0 0 1-2.68.536q-.692-.001-1.367-.137a7 7 0 0 1-1.313-.399 6.7 6.7 0 0 1-1.21-.648 6.7 6.7 0 0 1-1.063-.871 7 7 0 0 1-.871-1.059 7 7 0 0 1-1.18-3.89q.001-.692.137-1.368.134-.673.398-1.312.266-.638.649-1.211a7.1 7.1 0 0 1 1.93-1.93 7 7 0 0 1 1.21-.648 7 7 0 0 1 1.313-.399 7 7 0 0 1 1.367-.14M53.461 154.762c0-1.168.055-2.328.164-3.489q.169-1.74.496-3.457a36.5 36.5 0 0 1 1.95-6.7q.645-1.626 1.437-3.182a38 38 0 0 1 1.73-3.036 37 37 0 0 1 4.282-5.511 37 37 0 0 1 5.234-4.614 37 37 0 0 1 2.918-1.918 38 38 0 0 1 3.086-1.632 37.4 37.4 0 0 1 6.566-2.364q1.694-.432 3.422-.707a37 37 0 0 1 3.469-.382l5.894-.454v-5.894a56.6 56.6 0 0 1 .73-9.04q.369-2.242.911-4.445a57 57 0 0 1 1.266-4.359 56.6 56.6 0 0 1 3.562-8.336 59 59 0 0 1 2.274-3.93 56.6 56.6 0 0 1 5.46-7.238 54 54 0 0 1 3.149-3.265 58 58 0 0 1 3.402-3.004 56 56 0 0 1 3.637-2.715 55 55 0 0 1 3.84-2.418 60 60 0 0 1 4.023-2.098 57 57 0 0 1 8.492-3.187 57 57 0 0 1 4.41-1.07 56.6 56.6 0 0 1 9.004-1.059 57 57 0 0 1 4.54.02 56.4 56.4 0 0 1 13.394 2.242c1.453.43 2.887.914 4.297 1.46a56.1 56.1 0 0 1 15.605 9.125 57 57 0 0 1 3.38 3.032 56.5 56.5 0 0 1 5.968 6.828 57 57 0 0 1 2.55 3.75l3.126 4.988 5.176-2.8a31 31 0 0 1 7.183-2.813 30.5 30.5 0 0 1 7.657-.938c1.28 0 2.562.078 3.835.239a30 30 0 0 1 3.782.707 31 31 0 0 1 7.16 2.77 32 32 0 0 1 3.273 2.023 31.4 31.4 0 0 1 7.996 8.238l2.563 3.863 4.441-1.328a14 14 0 0 1 1.746-.418 15.2 15.2 0 0 1 5.36-.012q.885.153 1.746.41.866.257 1.691.614a15.3 15.3 0 0 1 3.106 1.785q.719.538 1.375 1.152.654.62 1.234 1.305.576.69 1.07 1.441.497.748.899 1.555.405.802.715 1.645c.203.566.375 1.136.515 1.722.137.582.243 1.172.309 1.766.07.598.105 1.191.105 1.793v6.254h11.258q1.822-.002 3.633.18 1.815.177 3.602.53a37 37 0 0 1 3.53.887q1.743.529 3.427 1.227c1.12.465 2.218.98 3.289 1.555a36 36 0 0 1 3.12 1.87 38 38 0 0 1 2.927 2.169 37 37 0 0 1 2.695 2.445c.86.856 1.676 1.758 2.445 2.695q1.155 1.408 2.168 2.922a38 38 0 0 1 1.871 3.121 38 38 0 0 1 1.555 3.293 37 37 0 0 1 1.226 3.426c.352 1.16.649 2.34.883 3.531q.359 1.788.535 3.598.182 1.815.18 3.637.002 1.822-.18 3.633a36 36 0 0 1-.535 3.601 36.7 36.7 0 0 1-2.11 6.957 37 37 0 0 1-8.04 12.031 38 38 0 0 1-2.693 2.446 37.5 37.5 0 0 1-6.047 4.04q-1.606.856-3.29 1.553a37 37 0 0 1-6.956 2.11q-1.787.358-3.602.535-1.81.18-3.633.18H90.547a38 38 0 0 1-3.637-.184 37.3 37.3 0 0 1-10.55-2.652 37 37 0 0 1-3.286-1.559 36 36 0 0 1-3.12-1.871 38 38 0 0 1-2.923-2.168 38 38 0 0 1-2.695-2.441 37.3 37.3 0 0 1-6.484-8.739 37.7 37.7 0 0 1-2.786-6.714 38 38 0 0 1-.886-3.528 36 36 0 0 1-.535-3.597 36 36 0 0 1-.184-3.633m0 0"/></g></svg>