<svg xmlns="http://www.w3.org/2000/svg" width="500" height="500" version="1.0" viewBox="0 0 375.12 383.04"><defs><clipPath id="a"><path d="M41 37.406h292v299.25H41Zm0 0"/></clipPath></defs><g clip-path="url(#a)"><path fill="#446482" fill-rule="evenodd" d="M218.04 336.656h-61.954c-1.754 0-2.926-.586-4.094-1.754s-1.168-2.922-1.168-4.09l4.09-29.226c-19.285-5.258-36.82-15.777-50.848-29.805l-23.379 18.703c-1.167.582-2.34 1.168-4.09.582-1.753 0-2.925-1.168-3.507-2.336l-30.977-53.773c-1.172-1.168-1.172-2.922-.586-4.09.586-1.754 1.754-2.922 2.922-3.508l27.473-10.52c-2.34-9.937-3.508-19.87-3.508-29.808s1.168-19.87 3.508-29.808l-27.473-10.52c-1.168-.586-2.336-1.754-2.922-3.508-.586-1.168-.586-2.922.586-4.09L73.09 85.332c.582-1.168 1.754-2.336 3.508-2.336 1.75-.586 2.922 0 4.09.582l23.378 18.703c14.028-14.027 31.563-24.547 50.848-29.808l-4.09-29.223c0-1.168 0-2.922 1.168-4.09s2.34-1.754 4.094-1.754h61.953c1.754 0 2.922.586 4.09 1.754s1.168 2.922 1.168 4.09l-4.09 29.223c19.29 5.261 36.82 15.78 50.848 29.808l23.379-18.703c1.171-.582 2.34-1.168 4.093-.582 1.754 0 2.922 1.168 3.508 2.336l30.977 53.773c1.168 1.168 1.168 2.922.582 4.09-.582 1.754-1.754 2.922-2.922 3.508l-27.469 10.52c2.336 9.937 3.508 19.87 3.508 29.808s-1.172 19.871-3.508 29.809l27.469 10.52c1.168.585 2.34 1.753 2.922 3.507.586 1.168.586 2.922-.582 4.09l-30.977 53.773c-.586 1.168-1.754 2.336-3.508 2.336-1.754.586-2.922 0-4.093-.582l-23.38-18.703c-14.027 14.028-31.558 24.547-50.847 29.805l4.09 29.226c0 1.168 0 2.922-1.168 4.09s-2.336 1.754-4.09 1.754m-56.11-10.52h50.265l-4.093-28.054c-.582-2.34 1.168-5.262 4.093-5.848 20.453-4.675 39.157-15.195 53.77-30.976 1.754-1.754 4.676-2.336 7.015-.582l22.207 17.531 24.551-43.25-25.718-10.52c-2.922-.585-4.09-3.507-3.508-6.43 3.508-9.937 4.676-20.456 4.676-30.976s-1.168-21.043-4.676-30.976c-.582-2.922.586-5.844 3.508-6.43l25.718-10.52-24.55-43.253-22.208 17.535c-2.34 1.754-5.261 1.168-7.015-.582-14.613-15.782-33.317-26.305-53.77-30.98-2.925-.583-4.675-3.505-4.093-5.845l4.093-28.054H161.93l4.09 28.054c.585 2.34-1.168 5.262-3.508 5.844-21.04 4.676-39.742 15.2-54.356 30.98-1.754 1.75-4.676 2.337-7.011.583L78.934 95.852l-24.547 43.253 25.715 10.52c2.921.586 4.093 3.508 3.507 6.43-3.507 9.933-4.675 20.457-4.675 30.976 0 10.52 1.168 21.04 4.675 30.977.586 2.922-.586 5.844-3.507 6.43l-25.715 10.519 24.547 43.25 22.21-17.531c2.336-1.754 5.258-1.172 7.012.582 14.614 15.781 33.317 26.3 53.774 30.976 2.922.586 4.675 3.508 4.09 5.848Zm0 0"/></g><path fill="#446482" fill-rule="evenodd" d="M187.063 268.855c-45.004 0-81.829-36.82-81.829-81.824s36.825-81.828 81.829-81.828 81.824 36.824 81.824 81.828-36.82 81.824-81.824 81.824m0-153.128c-39.16 0-71.31 32.144-71.31 71.304s32.15 71.305 71.31 71.305 71.304-32.145 71.304-71.305-32.144-71.304-71.305-71.304m0 0"/><path fill="#446482" fill-rule="evenodd" d="M184.14 209.824a5.236 5.236 0 0 1-5.261-5.258v-35.07a5.236 5.236 0 0 1 5.262-5.258 5.235 5.235 0 0 1 5.257 5.258v35.07a5.235 5.235 0 0 1-5.257 5.258m0 0"/><path fill="#446482" fill-rule="evenodd" d="M192.32 192.293h-8.18a5.24 5.24 0 0 1-5.261-5.262v-17.535a5.236 5.236 0 0 1 5.262-5.258h8.18c7.597 0 13.445 5.844 13.445 13.442v1.168c0 7.597-5.848 13.445-13.446 13.445m-2.922-10.523h2.922c1.754 0 2.922-1.168 2.922-2.922v-1.168c0-1.754-1.168-2.922-2.922-2.922h-2.922Zm0 0"/><path fill="#446482" fill-rule="evenodd" d="M199.336 209.824c-1.754 0-3.508-.582-4.676-2.336l-11.691-17.535c-1.754-2.336-1.168-5.844 1.172-7.012 2.336-1.754 5.843-1.171 7.011 1.168l12.274 17.536c1.754 2.335 1.168 5.843-1.168 7.011-1.168 1.168-1.754 1.168-2.922 1.168m-32.148-17.531H149.07a5.24 5.24 0 0 1-5.261-5.262v-17.535a5.24 5.24 0 0 1 5.261-5.258h18.118a5.236 5.236 0 0 1 5.261 5.258 5.24 5.24 0 0 1-5.262 5.262h-12.855v7.012h12.856a5.24 5.24 0 0 1 5.261 5.261 5.24 5.24 0 0 1-5.262 5.262m0 0"/><path fill="#446482" fill-rule="evenodd" d="M167.188 209.824H149.07a5.24 5.24 0 0 1-5.261-5.258v-17.535a5.24 5.24 0 0 1 5.261-5.261h18.118a5.24 5.24 0 0 1 5.261 5.261 5.24 5.24 0 0 1-5.262 5.262h-12.855v7.012h12.856a5.24 5.24 0 0 1 5.261 5.261 5.236 5.236 0 0 1-5.262 5.258m51.434 0a5.235 5.235 0 0 1-5.258-5.258v-35.07a5.235 5.235 0 0 1 5.258-5.258 5.236 5.236 0 0 1 5.262 5.258v35.07a5.236 5.236 0 0 1-5.262 5.258m0 0"/><path fill="#446482" fill-rule="evenodd" d="M227.39 192.293h-8.769a5.24 5.24 0 0 1-5.258-5.262v-17.535a5.235 5.235 0 0 1 5.258-5.258h8.77c7.011 0 13.441 5.844 13.441 13.442v1.168c0 7.597-6.43 13.445-13.441 13.445m-3.507-10.523h3.508c1.168 0 2.922-1.168 2.922-2.922v-1.168c0-1.754-1.754-2.922-2.922-2.922h-3.508Zm0 0"/></svg>