<svg xmlns="http://www.w3.org/2000/svg" width="500" height="500" version="1.0" viewBox="0 0 375.12 383.04"><defs><clipPath id="a"><path d="M38.371 37.406H336v299.25H38.371Zm0 0"/></clipPath></defs><path fill="#7b2fff" d="M159.46 143.73c2.18-.394 3.704-2.218 3.704-4.437 0-2.215-1.523-4.04-3.703-4.438-17.508-3.171-31.399-17.062-34.57-34.566-.395-2.184-2.22-3.707-4.438-3.707-2.219 0-4.043 1.523-4.437 3.707-3.172 17.504-17.063 31.395-34.57 34.566-2.18.399-3.704 2.223-3.704 4.438 0 2.219 1.524 4.043 3.703 4.437 17.508 3.172 31.399 17.067 34.57 34.57.395 2.18 2.22 3.708 4.438 3.708 2.219 0 4.043-1.528 4.438-3.707 3.171-17.504 17.062-31.399 34.57-34.57m-36.94-20.53a58.45 58.45 0 0 1-18.165 18.16 2.43 2.43 0 0 1-3.363-.766 2.437 2.437 0 0 1 .762-3.364 53.5 53.5 0 0 0 16.633-16.636 2.442 2.442 0 0 1 4.133 2.605m58.436-28.477c-9.375-1.696-16.816-9.137-18.512-18.512a3.878 3.878 0 0 0-7.632 0c-1.696 9.375-9.137 16.812-18.512 18.512a3.88 3.88 0 0 0-3.188 3.816c0 1.875 1.34 3.48 3.188 3.813 9.375 1.699 16.816 9.14 18.512 18.515a3.87 3.87 0 0 0 3.816 3.184c1.875 0 3.48-1.34 3.816-3.184 1.696-9.375 9.137-16.816 18.512-18.515a3.87 3.87 0 0 0 3.188-3.813c0-1.875-1.34-3.48-3.188-3.816m-20.14-17.426v.004zm20.14 98.937c-9.375-1.695-16.816-9.136-18.512-18.511a3.878 3.878 0 0 0-7.632 0c-1.696 9.375-9.137 16.812-18.512 18.511a3.875 3.875 0 0 0-3.188 3.817 3.87 3.87 0 0 0 3.188 3.812c9.375 1.7 16.816 9.14 18.512 18.516a3.87 3.87 0 0 0 3.816 3.184c1.875 0 3.48-1.34 3.816-3.184 1.696-9.375 9.137-16.816 18.512-18.516a3.87 3.87 0 0 0 3.188-3.812c0-1.88-1.34-3.48-3.188-3.817m-20.14-17.425v.004zm0 0"/><g clip-path="url(#a)"><path fill="#7b2fff" d="m332.137 294.52-7.114-7.114-32.886-32.89-40.004-40c-4.832-4.832-12.696-4.832-17.531 0l-1.442 1.445-13.418-13.418c13.828-17.379 22.106-39.363 22.106-63.25 0-56.102-45.645-101.746-101.746-101.746C84 37.547 38.355 83.19 38.355 139.293c0 56.105 45.645 101.746 101.747 101.746 23.09 0 44.402-7.734 61.496-20.746l13.613 13.613-1.441 1.442c-4.836 4.836-4.836 12.699 0 17.535l80 80a12.36 12.36 0 0 0 8.765 3.625c3.176 0 6.352-1.207 8.77-3.625l20.832-20.832c4.832-4.832 4.832-12.7 0-17.531m-192.035-59.582c-52.739 0-95.645-42.907-95.645-95.645s42.906-95.645 95.645-95.645 95.644 42.907 95.644 95.645-42.906 95.645-95.644 95.645m66.27-18.5a103 103 0 0 0 9.417-9.223l13.055 13.058-9.317 9.317Zm16.667 37.085-4.957-4.957a6.304 6.304 0 0 1 0-8.902l20.836-20.832a6.26 6.26 0 0 1 4.45-1.844c1.612 0 3.226.614 4.452 1.844l4.953 4.953Zm68.973 18.13a2.44 2.44 0 0 1-3.453 0l-33.196-33.2a2.44 2.44 0 0 1 0-3.45 2.443 2.443 0 0 1 3.453 0l33.196 33.196c.953.953.953 2.5 0 3.453m35.808 36.085-20.832 20.832a6.304 6.304 0 0 1-8.902 0l-4.957-4.957 29.738-29.734 4.953 4.953a6.3 6.3 0 0 1 0 8.906m0 0"/></g><path fill="#7b2fff" d="M140.102 57.29c-45.22 0-82.008 36.784-82.008 82.003s36.789 82.008 82.008 82.008 82.007-36.79 82.007-82.008c0-45.219-36.789-82.004-82.007-82.004m0 157.91c-41.856 0-75.907-34.052-75.907-75.907 0-41.852 34.051-75.902 75.907-75.902s75.906 34.05 75.906 75.902c0 41.855-34.051 75.906-75.906 75.906m0 0"/></svg>