<svg xmlns="http://www.w3.org/2000/svg" width="500" height="500" version="1.0" viewBox="0 0 375.12 383.04"><path fill="#00c5fb" d="M187.063 40.332a118 118 0 0 0-17.551 1.293 118 118 0 0 0-17.168 3.867 118 118 0 0 0-8.324 2.88 117 117 0 0 0-8.086 3.483 118.5 118.5 0 0 0-15.29 8.715 117 117 0 0 0-7.12 5.18 120 120 0 0 0-12.993 11.871 119 119 0 0 0-11.098 13.66 118.6 118.6 0 0 0-8.956 15.149 118 118 0 0 0-3.614 8.027 120 120 0 0 0-3.011 8.277q-1.355 4.19-2.391 8.473a120 120 0 0 0-1.754 8.629 122 122 0 0 0-1.113 8.734 120 120 0 0 0-.461 8.793q-.065 4.405.191 8.805.259 4.4.84 8.766.586 4.366 1.488 8.68a121 121 0 0 0 2.125 8.542q1.226 4.234 2.754 8.364a119 119 0 0 0 3.367 8.136 117 117 0 0 0 3.957 7.867 118 118 0 0 0 4.528 7.551 120 120 0 0 0 5.074 7.196 119.5 119.5 0 0 0 11.68 13.167l-6.7 17.833a25 25 0 0 0-1.003 3.464 25 25 0 0 0-.48 7.18q.14 1.801.538 3.566.394 1.765 1.04 3.454a25 25 0 0 0 1.527 3.27 25 25 0 0 0 1.98 3.015 24.5 24.5 0 0 0 2.39 2.699 119 119 0 0 0 13.203 11.305 122 122 0 0 0 4.755 3.324 119 119 0 0 0 15.145 8.523q2.625 1.236 5.308 2.336 2.678 1.107 5.414 2.078 2.73.972 5.508 1.809t5.59 1.539a118 118 0 0 0 11.375 2.25q2.871.421 5.753.707 2.887.281 5.786.422 2.895.143 5.797.144 2.898-.002 5.796-.144c1.93-.094 3.86-.234 5.782-.422q2.888-.286 5.754-.707a117 117 0 0 0 11.375-2.25 121 121 0 0 0 11.101-3.348q2.73-.971 5.414-2.078a116 116 0 0 0 5.305-2.336 119 119 0 0 0 10.238-5.437c1.66-.988 3.297-2.02 4.91-3.086q2.417-1.606 4.75-3.324a123 123 0 0 0 4.586-3.551 123 123 0 0 0 8.621-7.754q1.29-1.262 2.39-2.7a25.2 25.2 0 0 0 4.548-9.738c.262-1.175.441-2.367.535-3.566q.142-1.804.02-3.61a25.5 25.5 0 0 0-.497-3.57 25 25 0 0 0-1.007-3.464l-6.696-17.832a118.5 118.5 0 0 0 11.676-13.168 118 118 0 0 0 5.074-7.196 118 118 0 0 0 8.489-15.418 117 117 0 0 0 3.363-8.136 118 118 0 0 0 4.879-16.907q.908-4.314 1.488-8.68a118 118 0 0 0 1.031-17.57 118 118 0 0 0-1.574-17.527 118 118 0 0 0-4.144-17.102 118 118 0 0 0-3.008-8.277 120 120 0 0 0-3.614-8.027 119 119 0 0 0-8.96-15.148 117 117 0 0 0-5.297-7.036 118 118 0 0 0-12.079-12.8 120 120 0 0 0-6.714-5.696 117 117 0 0 0-7.118-5.18 118 118 0 0 0-7.484-4.64 118 118 0 0 0-7.809-4.075 117 117 0 0 0-8.085-3.484 118 118 0 0 0-16.832-5.133 118 118 0 0 0-8.657-1.613 118 118 0 0 0-8.754-.973c-2.93-.215-5.859-.324-8.797-.32m77.027 241.89a115 115 0 0 1-3.883 3.665 107 107 0 0 1-8.281 6.738 108 108 0 0 1-4.375 3.063q-2.227 1.476-4.524 2.84a113 113 0 0 1-4.652 2.62 116 116 0 0 1-4.777 2.387 113 113 0 0 1-4.887 2.152 113 113 0 0 1-4.988 1.91 108.5 108.5 0 0 1-15.434 4.247q-2.619.517-5.262.906-2.643.391-5.3.652c-1.774.172-3.547.305-5.329.391a110 110 0 0 1-10.675 0 110 110 0 0 1-5.325-.39 110 110 0 0 1-5.3-.653 108 108 0 0 1-10.477-2.07c-1.726-.43-3.445-.903-5.148-1.414a112 112 0 0 1-5.075-1.668 113 113 0 0 1-4.984-1.91 111 111 0 0 1-4.89-2.153 113 113 0 0 1-4.774-2.387 111 111 0 0 1-9.176-5.46 106 106 0 0 1-4.379-3.063 114 114 0 0 1-4.222-3.266 114 114 0 0 1-4.059-3.472 115 115 0 0 1-3.883-3.664 16.5 16.5 0 0 1-1.496-1.68 16 16 0 0 1-1.238-1.879 16 16 0 0 1-.957-2.035 15.9 15.9 0 0 1-.992-4.375 15.4 15.4 0 0 1-.016-2.246q.07-1.127.305-2.23t.62-2.16l5.427-14.434a115.5 115.5 0 0 0 21.226 13.914.15.15 0 0 0 .094.047 115.6 115.6 0 0 0 18.16 7.5c.047.046.14.046.188.093A119 119 0 0 0 169 276.836a119 119 0 0 0 18.063 1.375q9.08.001 18.062-1.375a119 119 0 0 0 17.645-4.098c.046-.047.14-.047.187-.093a115.6 115.6 0 0 0 18.16-7.5q.059-.006.094-.047a115.5 115.5 0 0 0 21.23-13.914l5.422 14.433q.393 1.06.621 2.16.234 1.104.309 2.23c.047.75.043 1.497-.02 2.247q-.087 1.126-.34 2.223-.246 1.1-.652 2.152t-.957 2.035a16 16 0 0 1-1.238 1.879 16 16 0 0 1-1.496 1.68m4.812-50.284v-62.594c0-.313-.03-.617-.09-.922a5 5 0 0 0-.269-.883 4.6 4.6 0 0 0-.438-.816 4.7 4.7 0 0 0-1.3-1.301 4.6 4.6 0 0 0-.817-.438 5 5 0 0 0-.883-.27 5 5 0 0 0-.921-.089h-24.86q-.461 0-.918.09a5 5 0 0 0-.886.27 4.5 4.5 0 0 0-.813.437 4.7 4.7 0 0 0-.715.586 4.7 4.7 0 0 0-.59.715 4.5 4.5 0 0 0-.433.816 4.6 4.6 0 0 0-.36 1.805v88.539c-2.879 1.414-5.8 2.64-8.82 3.82v-60.851a5 5 0 0 0-.09-.918 5 5 0 0 0-.27-.887 5 5 0 0 0-.437-.817 4.7 4.7 0 0 0-2.117-1.734 4.4 4.4 0 0 0-.883-.27 4.6 4.6 0 0 0-.922-.09h-24.86q-.46-.001-.917.09a4.4 4.4 0 0 0-.887.27 4.67 4.67 0 0 0-2.55 2.55q-.182.43-.27.888c-.059.3-.09.609-.09.918v67.832c-1.465.046-2.926.093-4.434.093-1.511 0-2.972-.047-4.433-.093v-97.5q0-.468-.094-.922a4.7 4.7 0 0 0-.265-.887 5 5 0 0 0-.438-.812 4.7 4.7 0 0 0-1.3-1.301 4.4 4.4 0 0 0-.817-.438 5 5 0 0 0-.883-.27 5 5 0 0 0-.922-.09h-24.86q-.464.002-.917.09a5 5 0 0 0-.887.27 4.4 4.4 0 0 0-.816.438 4.7 4.7 0 0 0-1.735 2.113c-.12.29-.21.582-.27.887q-.092.455-.09.922v90.52c-3.019-1.18-5.944-2.407-8.823-3.821v-50.617q.002-.463-.09-.918a4.7 4.7 0 0 0-.266-.887 4.8 4.8 0 0 0-1.738-2.117 4.7 4.7 0 0 0-.816-.434 4.7 4.7 0 0 0-1.805-.36h-24.86q-.464.001-.921.09c-.301.063-.598.15-.883.27a4.7 4.7 0 0 0-.817.434 4.5 4.5 0 0 0-.714.59 4.8 4.8 0 0 0-1.023 1.527 4.7 4.7 0 0 0-.267.887q-.093.455-.093.918v24.672a110 110 0 0 1-6.574-8.157 108 108 0 0 1-5.766-8.746q-1.336-2.25-2.563-4.566a114 114 0 0 1-2.34-4.688 107 107 0 0 1-2.117-4.797 114 114 0 0 1-1.882-4.886 111 111 0 0 1-4.215-15.13 111 111 0 0 1-1.59-10.355 112 112 0 0 1-.59-10.46q-.024-2.62.082-5.239c.066-1.746.18-3.488.332-5.226q.225-2.613.578-5.208t.828-5.175q.48-2.575 1.078-5.125a107 107 0 0 1 1.32-5.07q.72-2.52 1.56-5.005.841-2.48 1.8-4.918a107 107 0 0 1 2.031-4.832 112 112 0 0 1 4.742-9.34 114 114 0 0 1 2.704-4.488 111 111 0 0 1 2.914-4.355 113 113 0 0 1 3.117-4.207 114 114 0 0 1 3.316-4.059 114 114 0 0 1 3.508-3.89q1.8-1.906 3.688-3.723a110 110 0 0 1 7.89-6.89 111 111 0 0 1 8.512-6.105q2.202-1.426 4.469-2.74 2.263-1.316 4.59-2.523 2.326-1.21 4.707-2.3 2.38-1.096 4.812-2.075a112 112 0 0 1 9.89-3.445 109 109 0 0 1 10.18-2.48q2.573-.5 5.165-.876 2.595-.374 5.203-.625a106 106 0 0 1 5.226-.375c1.746-.086 3.488-.125 5.238-.125q2.62-.001 5.239.125 2.614.123 5.222.375c1.743.168 3.473.375 5.204.625a111 111 0 0 1 10.285 1.993q2.544.622 5.058 1.363a111 111 0 0 1 9.895 3.445 109 109 0 0 1 4.808 2.074q2.384 1.092 4.707 2.301a109.2 109.2 0 0 1 21.598 14.719 107 107 0 0 1 3.863 3.539 111 111 0 0 1 3.688 3.723 107 107 0 0 1 3.508 3.89 114 114 0 0 1 3.316 4.059 108 108 0 0 1 6.031 8.562 109.3 109.3 0 0 1 15.235 38.778 110.6 110.6 0 0 1 1.742 15.61 112 112 0 0 1-.09 10.476 117 117 0 0 1-.422 5.222 110.4 110.4 0 0 1-2.75 15.461 106 106 0 0 1-1.41 5.047 109 109 0 0 1-3.527 9.863 112 112 0 0 1-2.114 4.797 109 109 0 0 1-4.906 9.254 108 108 0 0 1-5.766 8.746 110 110 0 0 1-3.187 4.157 110 110 0 0 1-3.387 4m0 0"/><path fill="#00c5fb" d="M242.39 77.5q-1.343-.034-2.667.188c-.887.152-1.746.386-2.586.703a13.7 13.7 0 0 0-4.512 2.832 14 14 0 0 0-1.762 2.02 13.6 13.6 0 0 0-2.184 4.86 13.5 13.5 0 0 0-.343 2.655q.005 2.087.684 4.062a12.6 12.6 0 0 0 1.957 3.625l-27.168 34.246a14.7 14.7 0 0 0-3.387-.898 14.6 14.6 0 0 0-3.504-.063 14.5 14.5 0 0 0-3.418.77c-1.11.39-2.152.914-3.137 1.559l-20.847-13.54c.297-1.046.457-2.117.468-3.207a14 14 0 0 0-1.297-5.14 14 14 0 0 0-1.347-2.297 14 14 0 0 0-3.856-3.64 14 14 0 0 0-2.37-1.212 14.1 14.1 0 0 0-5.207-1q-1.341.001-2.653.254-1.312.25-2.559.746a14 14 0 0 0-4.468 2.848 14.3 14.3 0 0 0-1.758 2.004 14 14 0 0 0-1.348 2.297 14 14 0 0 0-.89 2.508 14 14 0 0 0-.407 2.632 12.15 12.15 0 0 0 1.84 6.368l-28.066 29.718a15.4 15.4 0 0 0-5.188-.941q-1.294.075-2.543.402-1.252.323-2.418.887a13.2 13.2 0 0 0-4.105 3.07 13.24 13.24 0 0 0-3.278 6.887 13.4 13.4 0 0 0 .207 5.125q.3 1.255.84 2.434.54 1.178 1.293 2.226.751 1.054 1.696 1.938a13.3 13.3 0 0 0 4.343 2.726 13.3 13.3 0 0 0 5.047.88 13 13 0 0 0 2.559-.302q1.265-.279 2.453-.792a13 13 0 0 0 2.25-1.25 13.3 13.3 0 0 0 1.973-1.657 13.3 13.3 0 0 0 3.543-6.758q.247-1.269.242-2.562a12.4 12.4 0 0 0-1.696-6.18l28.16-29.86q1.596.594 3.286.794a14.4 14.4 0 0 0 3.383.008 14.6 14.6 0 0 0 3.285-.782 14.5 14.5 0 0 0 3.02-1.527l20.847 13.488a12.6 12.6 0 0 0-.473 3.254q.078 1.334.406 2.63.323 1.293.891 2.507a14 14 0 0 0 1.344 2.293 14.2 14.2 0 0 0 3.851 3.633 14.1 14.1 0 0 0 4.918 1.953q1.313.251 2.649.25 1.336.001 2.644-.25a14 14 0 0 0 2.555-.742 14.08 14.08 0 0 0 8.856-12.274 12.05 12.05 0 0 0-1.555-5.941l28.066-35.38q1.7.393 3.442.427 1.347.034 2.672-.188a13.4 13.4 0 0 0 2.582-.703 13.7 13.7 0 0 0 4.515-2.832 13.5 13.5 0 0 0 1.758-2.02q.783-1.095 1.332-2.32a14 14 0 0 0 .855-2.539c.204-.87.317-1.758.344-2.652a13.5 13.5 0 0 0-.344-2.656 13.7 13.7 0 0 0-2.188-4.86 13.7 13.7 0 0 0-1.757-2.02 13.7 13.7 0 0 0-4.516-2.832 14 14 0 0 0-2.582-.703 14 14 0 0 0-2.671-.187m0 0"/></svg>