<svg xmlns="http://www.w3.org/2000/svg" width="500" height="500" version="1.0" viewBox="0 0 375.12 383.04"><defs><clipPath id="a"><path d="M38 72.566h298.688v228.93H38Zm0 0"/></clipPath></defs><path fill="#0096da" d="m127.469 155.133 30.535-30.54a48 48 0 0 0-1.664-2.515l-31.293 31.29Zm-5.179-3.781 32.003-32.008a53 53 0 0 0-1.938-2.235l-32.48 32.48Zm-4.84-13.067 27.683-27.68a49 49 0 0 0-2.473-1.71l-25.207 25.207v4.183Zm0-8.957 22.234-22.226a47 47 0 0 0-2.77-1.415l-19.465 19.461Zm0-8.957 16.132-16.129a55 55 0 0 0-3.105-1.074l-13.028 13.027Zm0-8.957 9.269-9.27a50 50 0 0 0-3.52-.652l-5.75 5.746Zm0 35.824 32.546-32.547a48 48 0 0 0-2.195-1.984l-30.352 30.348Zm1.437-46.215c-.48-.03-.957-.046-1.438-.066v1.508Zm13.758 57.891 28.453-28.453a48 48 0 0 0-1.36-2.82l-29.511 29.511ZM143 166.48l21.98-21.98a50 50 0 0 0-.566-3.613l-23.824 23.828Zm-5.18-3.785 25.653-25.652a48 48 0 0 0-1-3.172l-27.07 27.066Zm15.532 11.355 10.187-10.187a49 49 0 0 0 1.176-5.351l-13.774 13.773Zm-5.176-3.784 17.11-17.106c.042-.863.07-1.73.07-2.61 0-.538-.02-1.073-.036-1.609l-19.558 19.563Zm9.426 6.882a50 50 0 0 0 3.136-5.703l-4.617 4.618Zm0 0"/><g clip-path="url(#a)"><path fill="#0096da" d="M319.379 301.29H54.742c-9.234 0-16.742-7.517-16.742-16.747V89.176c0-9.235 7.512-16.746 16.742-16.746H319.38c9.234 0 16.742 7.515 16.742 16.746v195.367c.004 9.23-7.508 16.746-16.742 16.746M54.742 79.128c-5.539 0-10.047 4.504-10.047 10.047v195.367c0 5.539 4.508 10.047 10.047 10.047H319.38c5.539 0 10.047-4.508 10.047-10.047V89.176c0-5.543-4.508-10.047-10.047-10.047Zm0 0"/></g><path fill="#0096da" d="M208.668 138.352h12.855v42.07h-12.855Zm19.945 3.508h12.856v38.566h-12.856Zm19.942 7.015h12.851v31.55h-12.851Zm19.945-17.539h12.852v49.086H268.5Zm19.945 0h12.852v49.086h-12.852Zm12.211 77.906-67.496 33.164-24.562-14.87-44.305 20.14-71.781 6.332-28.27 20.094h236.211Zm-185.023-9.176c-27.38 0-49.649-22.27-49.649-49.648 0-26.754 21.27-48.621 47.782-49.606v49.118h.023l41.5 30.32h-.004c-9.062 12.027-23.469 19.816-39.652 19.816m0 0"/></svg>