<svg xmlns="http://www.w3.org/2000/svg" width="500" height="500" version="1.0" viewBox="0 0 375.12 383.04"><defs><clipPath id="a"><path d="M37.438 81.172h299.25V292.89H37.438Zm0 0"/></clipPath></defs><path fill="#e8f4ff" d="M191.012 236.012h-18.055c-.887 0-1.605.718-1.605 1.605v13.426c0 .887.718 1.605 1.605 1.605h18.055c.886 0 1.605-.718 1.605-1.605v-13.426c0-.887-.719-1.605-1.605-1.605m27.098-17.344h-18.051c-.891 0-1.61.719-1.61 1.605v30.77c0 .887.719 1.605 1.61 1.605h18.05c.887 0 1.606-.718 1.606-1.605v-30.77c0-.886-.719-1.605-1.606-1.605m27.079 7.859h-18.051c-.89 0-1.606.72-1.606 1.606v22.91c0 .887.715 1.605 1.606 1.605h18.05c.887 0 1.606-.718 1.606-1.605v-22.922a1.616 1.616 0 0 0-1.606-1.594m27.067-15.757h-18.05c-.888 0-1.606.718-1.606 1.605v38.668c0 .887.718 1.605 1.605 1.605h18.05c.892 0 1.61-.718 1.61-1.605v-38.668c0-.887-.718-1.605-1.61-1.605m27.169-19.47h-18.05c-.888 0-1.606.72-1.606 1.606v58.145c0 .887.718 1.605 1.605 1.605h18.05c.892 0 1.61-.719 1.61-1.605v-58.145c0-.898-.719-1.605-1.61-1.605m0 0"/><path fill="#e8f4ff" d="M309.957 160.531c0-.031 0-.07-.012-.097a3 3 0 0 0-.03-.192l-.028-.129-.032-.11c0-.01-.007-.019-.007-.03l-.032-.098c-.011-.05-.03-.09-.05-.133a.4.4 0 0 0-.04-.09c-.019-.047-.05-.109-.07-.156a10 10 0 0 0-.148-.27q-.019-.018-.02-.03c-.043-.051-.082-.11-.12-.16-.02-.02-.032-.04-.052-.06-.039-.038-.07-.081-.109-.12l-.059-.06c-.039-.038-.09-.081-.128-.128a.4.4 0 0 0-.07-.063 3 3 0 0 0-.16-.117.5.5 0 0 1-.08-.062c-.042-.028-.081-.047-.12-.078-.031-.02-.059-.032-.09-.051-.05-.031-.102-.05-.148-.078l-.063-.031a1.4 1.4 0 0 0-.226-.079c-.024-.011-.051-.011-.07-.023-.063-.02-.122-.027-.18-.047-.012 0-.032-.012-.04-.012q-.018.002-.03-.007l-.212-.032c-.02 0-.027 0-.05-.011h-.008l-13.086-1.266a2.743 2.743 0 0 0-3 2.473 2.744 2.744 0 0 0 2.472 3.004l5.875.566-59.972 43.637a5.96 5.96 0 0 0-8.399 1.187l-16.804-6.605a5.96 5.96 0 0 0-5.485-3.61 5.97 5.97 0 0 0-5.855 4.817l-21.953 13.664a2.75 2.75 0 0 0-.875 3.793 2.73 2.73 0 0 0 2.332 1.293c.5 0 .996-.13 1.445-.418l20.746-12.914a5.97 5.97 0 0 0 4.149 1.683 5.96 5.96 0 0 0 4.937-2.613l16.527 6.492a5.97 5.97 0 0 0 5.606 3.942 5.96 5.96 0 0 0 5.953-5.614l60.95-44.343-1.18 5.632a2.747 2.747 0 0 0 2.136 3.254 2.76 2.76 0 0 0 3.262-2.125l2.633-12.617v-.02c.02-.078.027-.16.039-.25 0-.019 0-.039.012-.07q.009-.086.007-.18v-.097c.012-.05.012-.09.012-.14M140.605 146.29H86.2a5.485 5.485 0 0 0-5.488 5.483 5.49 5.49 0 0 0 5.488 5.489h54.414a5.49 5.49 0 0 0 5.489-5.489c0-3.02-2.465-5.484-5.497-5.484m-.001 31.797H86.2a5.485 5.485 0 1 0 0 10.969h54.414a5.485 5.485 0 0 0 5.489-5.485c0-3.03-2.465-5.484-5.497-5.484m-.001 31.785H86.2a5.485 5.485 0 1 0 0 10.969h54.414a5.485 5.485 0 0 0 5.489-5.485c0-3.02-2.465-5.484-5.497-5.484m-.001 31.797H86.2a5.485 5.485 0 1 0 0 10.969h54.414a5.485 5.485 0 0 0 5.489-5.485c0-3.03-2.465-5.484-5.497-5.484m-65.469-89.883a5.5 5.5 0 0 1-1.606 3.88q-.38.38-.832.679c-.3.203-.613.37-.949.508q-.5.208-1.027.312a5.5 5.5 0 0 1-3.168-.312 5 5 0 0 1-.95-.508q-.45-.3-.832-.68a5.6 5.6 0 0 1-.683-.832 5.52 5.52 0 0 1-.817-4.117c.07-.356.172-.695.313-1.031q.206-.5.504-.946.304-.45.683-.832.382-.383.832-.683.446-.299.95-.508a5.55 5.55 0 0 1 3.168-.309q.528.104 1.027.309a5.5 5.5 0 0 1 1.781 1.191q.38.38.684.832.3.447.504.946a5.5 5.5 0 0 1 .418 2.102m0 31.764a5.5 5.5 0 0 1-2.438 4.563c-.3.2-.613.367-.949.504q-.5.208-1.027.313a5.5 5.5 0 0 1-4.95-1.5 5.6 5.6 0 0 1-.683-.832 5.52 5.52 0 0 1-.817-4.118q.103-.528.313-1.027a5.3 5.3 0 0 1 .504-.95q.304-.45.683-.831.382-.38.832-.684.446-.298.95-.504.498-.208 1.027-.312a5.46 5.46 0 0 1 3.168.312 5.4 5.4 0 0 1 1.781 1.188q.38.38.684.832.3.445.504.95.209.498.312 1.026.105.53.106 1.07m0 31.778q0 .54-.106 1.067-.103.533-.312 1.03a5.5 5.5 0 0 1-.504.95q-.304.445-.684.832-.38.38-.832.68c-.3.199-.613.37-.949.508a5.5 5.5 0 0 1-4.195 0 5.3 5.3 0 0 1-.95-.508q-.45-.3-.832-.68a6 6 0 0 1-.683-.832 5.52 5.52 0 0 1-.817-4.117q.103-.534.313-1.031.206-.498.504-.95a6 6 0 0 1 .683-.828q.382-.386.832-.683.446-.301.95-.508a5.46 5.46 0 0 1 4.195 0c.336.137.648.308.95.508q.45.297.831.683.38.382.684.828a5.5 5.5 0 0 1 .922 3.051m0 31.766a5.5 5.5 0 0 1-1.606 3.879q-.38.38-.832.68a5.6 5.6 0 0 1-1.977.82 5.5 5.5 0 0 1-3.167-.313 5.3 5.3 0 0 1-.95-.508q-.45-.298-.832-.68a6 6 0 0 1-.683-.831 5.52 5.52 0 0 1-.817-4.118q.103-.533.313-1.03.206-.5.504-.95a6 6 0 0 1 .683-.828q.382-.386.832-.684a5.5 5.5 0 0 1 1.977-.82 5.46 5.46 0 0 1 3.168.312c.336.141.648.309.95.508q.45.298.831.684.38.382.684.828a5.5 5.5 0 0 1 .922 3.05m0 0"/><g clip-path="url(#a)"><path fill="#e8f4ff" d="M323.242 81.172H50.882c-7.41 0-13.425 6.016-13.425 13.433v184.86c0 7.41 6.016 13.426 13.426 13.426h272.36c7.41 0 13.421-6.016 13.421-13.426V94.605c0-7.418-6.012-13.433-13.422-13.433m-80.68 15.23a6.42 6.42 0 0 1 4.532-1.875h49.765a6.4 6.4 0 0 1 6.403 6.403 6.38 6.38 0 0 1-1.875 4.527 6.4 6.4 0 0 1-4.528 1.875h-49.765a6.404 6.404 0 0 1-4.531-10.93m-117.367.368a3.14 3.14 0 0 1 3.14-3.141h8.31a3.14 3.14 0 0 1 3.14 3.14v8.31a3.14 3.14 0 0 1-3.14 3.14h-8.31a3.14 3.14 0 0 1-3.14-3.14Zm-27.757 0a3.14 3.14 0 0 1 3.144-3.141h8.305a3.14 3.14 0 0 1 3.144 3.14v8.31a3.14 3.14 0 0 1-3.144 3.14h-8.305a3.14 3.14 0 0 1-3.144-3.14Zm-27.754 0a3.14 3.14 0 0 1 3.14-3.141h8.309a3.14 3.14 0 0 1 3.14 3.14v8.31a3.14 3.14 0 0 1-3.14 3.14h-8.309a3.14 3.14 0 0 1-3.14-3.14ZM323.34 272.875c0 2.973-2.414 5.375-5.395 5.375H56.168a5.38 5.38 0 0 1-5.387-5.375v-146.8a5.38 5.38 0 0 1 5.387-5.388h261.777a5.39 5.39 0 0 1 5.395 5.387Zm0 0"/></g></svg>