<svg xmlns="http://www.w3.org/2000/svg" width="500" height="500" version="1.0" viewBox="0 0 375.12 383.04"><defs><clipPath id="a"><path d="M37.438 121H108v132H37.438Zm0 0"/></clipPath><clipPath id="b"><path d="M77 93.516h208v187.03H77Zm0 0"/></clipPath></defs><g clip-path="url(#a)"><path fill="#4a6b8a" d="M78.488 246.86c1.633-.47 3.032-1.633 3.965-3.036l.7-1.164c2.331.7 4.429 1.399 6.761 1.867v1.399c0 3.73 3.035 6.531 6.531 6.531h9.563c.469 0 .933 0 1.402-.234v-16.328h-.234v-11.66c-2.098.23-3.965.464-6.063.464-20.293 0-36.62-16.793-36.62-37.55 0-20.758 16.558-37.551 36.62-37.551 2.098 0 3.965.23 6.063.464v-11.664h.234v-16.324c-.469 0-.933-.234-1.402-.234h-9.563c-3.73 0-6.53 3.031-6.53 6.531v1.399c-2.333.468-4.665 1.167-6.763 1.867l-.699-1.168c-.933-1.633-2.332-2.563-3.965-3.031-1.633-.465-3.5-.235-5.133.699l-8.164 4.898c-3.03 1.867-4.199 5.832-2.332 8.863l.7 1.168a54 54 0 0 0-5.13 5.13l-.933-.7c-1.633-.934-3.266-1.164-5.133-.7-1.633.466-3.031 1.634-3.965 3.032l-4.664 8.399c-1.867 3.03-.699 7.23 2.332 8.863l.934 1.398c-.7 2.332-1.398 4.664-1.867 7.23h-1.164c-3.735 0-6.532 3.032-6.532 6.532v9.797c0 3.73 3.032 6.531 6.532 6.531h1.164c.469 2.563 1.168 4.899 1.867 7.23l-1.168.7c-3.031 1.863-4.2 5.832-2.332 8.863l4.664 8.395c.934 1.632 2.332 2.566 3.965 3.035 1.633.465 3.5.23 5.133-.703l1.168-.23a54 54 0 0 0 5.129 5.128l-.7 1.168c-1.867 3.031-.699 7.23 2.332 8.863l8.164 4.899c1.633 1.164 3.266 1.398 5.133.933m0 0"/></g><path fill="#4a6b8a" d="M186.71 147.496h-41.983a4.68 4.68 0 0 0-4.665 4.664c0 2.567 2.098 4.668 4.665 4.668h41.984c2.566 0 4.664-2.101 4.664-4.668a4.68 4.68 0 0 0-4.664-4.664m4.664 25.656a4.676 4.676 0 0 0-4.664-4.664h-41.984a4.676 4.676 0 0 0-4.665 4.664 4.676 4.676 0 0 0 4.665 4.664h41.984a4.676 4.676 0 0 0 4.664-4.664m-4.665 23.325c0-1.633.235-3.032.7-4.665h-42.683a4.676 4.676 0 0 0-4.665 4.665 4.676 4.676 0 0 0 4.665 4.664h41.984Zm0 18.425h-41.983c-2.567 0-4.665 2.102-4.665 4.668a4.68 4.68 0 0 0 4.665 4.664h41.984Zm-46.647 25.657c0 2.566 2.097 4.668 4.664 4.668h41.984v-9.332h-41.984a4.68 4.68 0 0 0-4.665 4.664m191.028-50.844-1.402-.469c.234-2.332 0-4.664 0-6.996l1.167-.234c1.633-.465 3.032-1.633 3.965-3.032.934-1.632 1.168-3.265.7-5.132l-2.567-9.329c-.933-3.5-4.664-5.597-7.93-4.664l-1.164.23c-1.168-2.097-2.332-4.194-3.734-6.296l.7-.7c2.566-2.566 2.566-6.761 0-9.327L314.062 137c-2.567-2.566-6.766-2.566-9.333 0l-.699.7c-2.097-1.4-4.199-2.563-6.297-3.731l.235-1.168c.933-3.496-1.168-6.996-4.664-7.93l-9.332-2.566c-1.633-.465-3.496-.23-5.13.703-1.632.93-2.566 2.332-3.034 3.965l-.23 1.164a35.5 35.5 0 0 0-7 0l-.466-1.399c-.933-3.5-4.664-5.597-7.93-4.664l-9.097 2.332c-1.633.465-3.031 1.633-3.965 3.031-.934 1.633-1.168 3.266-.7 5.133l.235 1.164c-2.101.934-3.965 2.102-6.066 3.5l-.934-.933c-2.566-2.567-6.761-2.567-9.328 0l-6.297 6.297v9.562l.7.7q-.354.7-.7 1.402v28.222h12.36c-.23-.468-.23-.933-.23-1.632.698-8.399 4.429-16.329 10.26-22.16 14.227-14.227 37.317-13.762 51.782.699 14.461 14.46 14.692 37.785.7 51.78-5.833 5.833-13.762 9.563-22.16 10.263h-.466c-.468 0-.699 0-1.168-.23v18.655c6.297.235 16.563-1.632 17.961-1.632.465 0 1.164 0 1.633-.23 3.5-1.403 6.762-3.036 9.797-5.134l.934.934c2.562 2.566 6.761 2.566 9.328 0l6.765-6.766c2.563-2.566 2.563-6.761 0-9.328l-.933-.933c1.164-1.868 2.332-3.965 3.496-6.063l1.168.23c1.633.47 3.5.235 5.133-.699 1.629-.933 2.562-2.332 3.03-3.965l2.333-9.097c.933-3.031-1.168-6.528-4.664-7.461m0 0"/><g clip-path="url(#b)"><path fill="#4a6b8a" d="M280.008 271.113h-13.992v-74.636c0-2.567-2.102-4.665-4.668-4.665h-60.641a4.676 4.676 0 0 0-4.664 4.665v74.636h-69.977V115.777l79.305 12.828v53.88h9.328V124.64c0-2.336-1.633-4.2-3.965-4.668l-5.363-.93v-9.797c0-2.332-1.633-4.2-3.965-4.668l-65.308-10.726c-1.399-.235-2.797.234-3.73.933-.934 1.164-1.634 2.332-1.634 3.73v8.4l-8.632-1.403c-1.399-.23-2.797.234-3.73 1.168-.934.933-1.634 2.097-1.634 3.5v160.933H81.754a4.683 4.683 0 0 0-4.668 4.668c0 2.563 2.102 4.664 4.668 4.664h198.254a4.68 4.68 0 0 0 4.664-4.664c0-2.566-2.098-4.668-4.664-4.668m-39.653-65.304h4.668a4.68 4.68 0 0 1 4.665 4.664 4.68 4.68 0 0 1-4.665 4.664h-4.668a4.68 4.68 0 0 1-4.664-4.664 4.68 4.68 0 0 1 4.664-4.664m0 16.324h4.668c2.563 0 4.665 2.101 4.665 4.668 0 2.562-2.102 4.664-4.665 4.664h-4.668c-2.562 0-4.664-2.102-4.664-4.664 0-2.567 2.102-4.668 4.664-4.668m-23.324-16.324h4.668a4.68 4.68 0 0 1 4.664 4.664 4.68 4.68 0 0 1-4.664 4.664h-4.668a4.68 4.68 0 0 1-4.664-4.664 4.68 4.68 0 0 1 4.664-4.664m0 16.324h4.668c2.563 0 4.664 2.101 4.664 4.668 0 2.562-2.101 4.664-4.664 4.664h-4.668c-2.562 0-4.664-2.102-4.664-4.664 0-2.567 2.102-4.668 4.664-4.668m0 48.98V247.79c0-2.562 2.102-4.664 4.668-4.664h18.656c2.567 0 4.668 2.102 4.668 4.664v23.324Zm0 0"/></g></svg>