<svg xmlns="http://www.w3.org/2000/svg" width="500" height="500" version="1.0" viewBox="0 0 375.12 383.04"><defs><clipPath id="a"><path d="M112 63h224.688v169H112Zm0 0"/></clipPath><clipPath id="b"><path d="M37.438 39.09H334V335H37.438Zm0 0"/></clipPath></defs><g clip-path="url(#a)"><path fill="#00ff9c" d="M185.586 231.297c-4.453 0-8.91-1.695-12.309-5.102l-59.8-59.8a3.487 3.487 0 0 1 0-4.934l19.687-19.688a3.49 3.49 0 0 1 4.938 0l47.484 47.485L310.69 64.156a3.49 3.49 0 0 1 4.938 0l19.687 19.688a3.494 3.494 0 0 1 0 4.933L197.902 226.195a17.35 17.35 0 0 1-12.316 5.102m0 0"/></g><g clip-path="url(#b)"><path fill="#00ff9c" d="M292.898 145.387a114.8 114.8 0 0 1 7.786 41.644c0 63.625-51.766 115.387-115.387 115.387-63.625 0-115.387-51.762-115.387-115.387S121.672 71.645 185.297 71.645c28.848 0 55.262 10.648 75.516 28.207l23.03-23.032c-27.136-24.328-61.82-37.64-98.546-37.64-39.492 0-76.621 15.379-104.547 43.304S37.445 147.54 37.445 187.031s15.38 76.621 43.305 104.547c27.922 27.926 65.055 43.305 104.547 43.305s76.617-15.38 104.543-43.305c27.926-27.926 43.305-65.055 43.305-104.547 0-23.398-5.399-45.965-15.606-66.281Zm0 0"/></g><path fill="#00ff9c" d="M98.531 196.18H86.727a4.427 4.427 0 0 1 0-8.852H98.53a4.427 4.427 0 0 1 0 8.852m91.193 92.367a4.42 4.42 0 0 1-4.426-4.426v-11.805a4.42 4.42 0 0 1 4.426-4.425 4.424 4.424 0 0 1 4.425 4.425v11.805a4.424 4.424 0 0 1-4.425 4.426m0-184.734a4.424 4.424 0 0 1-4.426-4.426V87.582a4.427 4.427 0 0 1 8.852 0v11.805a4.427 4.427 0 0 1-4.426 4.426m94.433 92.664h-11.804a4.427 4.427 0 0 1 0-8.852h11.804a4.427 4.427 0 0 1 0 8.852m0 0"/></svg>