<svg xmlns="http://www.w3.org/2000/svg" width="500" height="500" version="1.0" viewBox="0 0 375.12 383.04"><defs><clipPath id="a"><path d="M37.438 52.184h299.25V322H37.438Zm0 0"/></clipPath></defs><g clip-path="url(#a)"><path fill="#496d8f" fill-rule="evenodd" d="M171.344 247.973v66.82a6.994 6.994 0 0 1-7 7.004 6.995 6.995 0 0 1-7.004-7.004v-66.82c0-4.477-1.852-8.559-4.824-11.536-2.977-2.972-7.059-4.824-11.524-4.824h-33.984c-.434 0-.828.18-1.11.461-.293.281-.46.676-.46 1.11v9.511c0 3.243-.985 6.29-2.75 8.856a15.56 15.56 0 0 1-7.286 5.71 15.47 15.47 0 0 1-9.203.606 15.6 15.6 0 0 1-7.957-4.746l-36.64-40.777a15.5 15.5 0 0 1-4.012-10.41c0-3.72 1.332-7.438 4.012-10.426l36.64-40.766A15.5 15.5 0 0 1 86.2 146c3-.73 6.188-.547 9.203.605a15.47 15.47 0 0 1 7.285 5.711 15.54 15.54 0 0 1 2.75 8.852v9.5c0 .45.168.844.45 1.125.277.281.672.46 1.12.46h33.985a74.8 74.8 0 0 1 16.348 1.798v-52.492c0-.438-.18-.844-.45-1.125a1.6 1.6 0 0 0-1.136-.45h-9.5c-3.238 0-6.285-.98-8.852-2.75a15.6 15.6 0 0 1-5.71-7.28c-1.153-3.02-1.337-6.188-.606-9.192a15.57 15.57 0 0 1 4.742-7.957l40.766-36.637c2.988-2.68 6.707-4.016 10.426-4.016 3.718 0 7.437 1.336 10.425 4.016l40.762 36.637a15.5 15.5 0 0 1 4.746 7.957 15.44 15.44 0 0 1-.605 9.191 15.55 15.55 0 0 1-5.711 7.281 15.5 15.5 0 0 1-8.856 2.75h-9.5c-.449 0-.84.168-1.136.45a1.6 1.6 0 0 0-.446 1.125v52.48a75.5 75.5 0 0 1 16.344-1.785h33.988c.434 0 .828-.18 1.121-.461.282-.281.465-.688.465-1.125v-9.5c0-3.238.98-6.285 2.75-8.852 1.738-2.539 4.238-4.546 7.281-5.71 3.02-1.153 6.188-1.336 9.207-.606a15.65 15.65 0 0 1 7.957 4.742l36.637 40.766a15.54 15.54 0 0 1 0 20.836l-36.637 40.777a15.57 15.57 0 0 1-7.957 4.746 15.5 15.5 0 0 1-9.207-.605 15.55 15.55 0 0 1-7.28-5.711 15.5 15.5 0 0 1-2.75-8.856v-9.511c0-.434-.169-.844-.45-1.121a1.6 1.6 0 0 0-1.125-.45H233.06c-4.477 0-8.547 1.852-11.52 4.825-2.976 2.976-4.828 7.058-4.828 11.535v66.82a6.994 6.994 0 0 1-7 7.004 6.995 6.995 0 0 1-7.004-7.004v-66.82c0-8.336 3.426-15.926 8.926-21.426s13.09-8.942 21.426-8.942h33.984c4.281 0 8.168 1.758 11.004 4.59 2.832 2.836 4.586 6.735 4.586 11v9.516c0 .394.086.703.226.914.153.238.422.434.774.559.379.14.715.183.98.113.254-.055.52-.238.785-.535L322.035 203c.27-.293.41-.672.41-1.066 0-.38-.129-.758-.41-1.067l-36.637-40.777c-.265-.281-.53-.465-.785-.535-.265-.07-.617-.028-.98.113-.34.125-.606.336-.774.562-.14.211-.226.52-.226.91v9.5c0 4.294-1.754 8.196-4.574 11.016a15.55 15.55 0 0 1-11.016 4.574h-33.984c-16.98 0-32.399 6.934-43.582 18.118s-18.118 26.605-18.118 43.582Zm0 0"/></g></svg>