<svg xmlns="http://www.w3.org/2000/svg" width="500" height="500" version="1.0" viewBox="0 0 375.12 383.04"><defs><clipPath id="a"><path d="M162 37.406h50V87h-50Zm0 0"/></clipPath><clipPath id="b"><path d="M162 287h50v49.656h-50Zm0 0"/></clipPath></defs><path fill="#496d8f" d="M272.27 258.094c.148.351.355.68.527 1.031.351.742.7 1.488 1.129 2.195.238.399.539.754.808 1.137.426.61.836 1.238 1.32 1.813.317.375.688.707 1.028 1.07.504.527.988 1.062 1.54 1.55q.114.08.226.173a24.58 24.58 0 0 0 16.207 6.101c13.683 0 24.816-11.105 24.816-24.766 0-10.968-7.016-20.464-17.469-23.632-2.007-.641-4.101-.95-6.203-1.051-2.824-.125-5.695.176-8.469 1.039-.011 0-.015.004-.027.012-1.293.394-2.539.89-3.723 1.468-7.148 3.516-12.109 10.239-13.378 18.13a25 25 0 0 0-.325 4.034c0 2.086.278 4.18.832 6.22q.452 1.796 1.157 3.476Zm-34.915-86.844c-.218.164-.492.328-.71.492-.22.11-.383.219-.602.383a41 41 0 0 1-3.492 1.965c-.328.164-.711.328-1.094.492a58 58 0 0 1-3.496 1.527c-.328.11-.598.274-.926.383-10.758 4.04-24.957 6.227-39.972 6.227-15.02 0-29.16-2.188-39.918-6.227-.383-.11-.602-.273-.93-.383-1.313-.492-2.512-1.039-3.606-1.527l-.98-.492c-1.313-.656-2.512-1.313-3.606-2.02l-.492-.328a9 9 0 0 1-.761-.492v16.273c.16.872.597 1.747 1.308 2.676.164.164.383.492.438.492l.382.38c1.309 1.312 2.95 2.515 4.86 3.605 1.691.984 3.605 1.855 5.844 2.73.164.055.273.11.437.164 2.184.82 4.695 1.582 7.316 2.239 4.532 1.148 9.5 2.02 14.743 2.62 2.078.22 4.207.438 6.336.602 1.527.11 3.113.11 4.695.164 2.676.055 5.351.055 8.082 0 1.476-.054 3.004-.054 4.422-.164 3.496-.219 6.828-.601 10.105-1.039 1.965-.324 3.93-.597 5.79-.98 4.585-.875 8.843-2.075 12.613-3.496 3.984-1.473 7.207-3.168 9.445-4.97.273-.218.601-.437.82-.655.274-.22.383-.328.547-.493.164-.218.383-.433.602-.597.488-.547.761-.985 1.035-1.422.11-.219.219-.438.328-.602.164-.382.328-.761.383-1.144v-.11c0-.054.054-.109.11-.164 0-.054-.056-.109 0-.164Zm-43.796 26.047h-12.996c-2.239 0-4.094-1.856-4.094-4.094a4.09 4.09 0 0 1 4.094-4.098h12.996a4.094 4.094 0 0 1 4.097 4.098c0 2.238-1.86 4.094-4.097 4.094m0 0"/><path fill="#496d8f" d="M141.879 164.8c2.144 1.419 4.875 2.79 8.125 4.012.234.09.496.165.738.254a74 74 0 0 0 6.973 2.13c.215.054.433.1.644.156a101 101 0 0 0 8.34 1.656c.235.039.469.066.703.105 2.825.426 5.754.746 8.754.98.438.036.875.063 1.317.095 2.851.195 5.765.3 8.718.316.297 0 .582.016.875.016 14.176 0 27.336-2.024 37.051-5.696 3.496-1.316 6.38-2.8 8.586-4.336 2.95-2.062 4.656-4.21 4.656-6.148 0-6.63-19.593-16.258-50.293-16.258s-50.293 9.629-50.293 16.258c0 2.039 1.868 4.308 5.11 6.465Zm94.93 35.5a32 32 0 0 1-3.387 2.02c-.543.274-1.09.602-1.692.875a100 100 0 0 1-3.44 1.473c-.438.164-.817.383-1.255.547-3.168 1.203-6.719 2.183-10.43 3.058-3.933.93-8.082 1.692-12.507 2.184a121 121 0 0 1-7.918.766c-.98.054-2.075.054-3.059.054-1.965.11-3.93.22-6.004.22-2.133 0-4.262-.11-6.39-.22-.93-.054-1.856 0-2.786-.054a127 127 0 0 1-6.714-.657 114 114 0 0 1-14.692-2.511c-3.222-.82-6.336-1.692-9.117-2.73a1 1 0 0 1-.383-.11c-.547-.219-.984-.438-1.476-.656a27 27 0 0 1-3.387-1.473c-.598-.274-1.145-.602-1.746-.93-.985-.488-1.91-1.09-2.785-1.636-.22-.165-.547-.329-.82-.493v15.782c0 3.386 5.027 7.37 13.109 10.484 7.644 2.84 17.527 4.754 28.558 5.406 5.57.328 11.633.383 17.145 0 10.812-.597 20.644-2.457 28.508-5.406 8.136-3.113 13.16-7.098 13.16-10.484v-15.782c-.164.11-.328.22-.492.274m-43.25 25.884h-12.996c-2.239 0-4.094-1.856-4.094-4.094a4.09 4.09 0 0 1 4.094-4.098h12.996a4.094 4.094 0 0 1 4.097 4.098c0 2.238-1.86 4.094-4.097 4.094m101.496-125.287a24.58 24.58 0 0 0-16.207 6.106 24.1 24.1 0 0 0-7.723 12.394 23.7 23.7 0 0 0-.84 6.27c0 10.965 7 20.46 17.418 23.637 4.883 1.515 10.035 1.476 14.645.015 10.507-3.183 17.523-12.68 17.523-23.652 0-13.656-11.133-24.77-24.816-24.77M79.07 273.164a24.6 24.6 0 0 0 16.207-6.101c.07-.063.153-.114.223-.172.55-.493 1.043-1.028 1.547-1.559.336-.355.703-.687 1.02-1.059.496-.59.917-1.222 1.355-1.851.25-.363.539-.711.773-1.086.45-.727.809-1.496 1.176-2.266.152-.316.34-.617.477-.941a23 23 0 0 0 1.144-3.434c.57-2.117.848-4.21.848-6.289 0-10.965-7-20.465-17.422-23.636a25 25 0 0 0-7.41-1.13c-.488 0-.965.083-1.457.11-.739.043-1.485.059-2.211.168a23.4 23.4 0 0 0-3.563.836c-10.504 3.184-17.523 12.68-17.523 23.652 0 13.656 11.137 24.762 24.82 24.762Zm29.985-11.18a32 32 0 0 1-1.52 2.957c-.191.32-.36.653-.562.97a33 33 0 0 1-2.36 3.32l51.946 30.042a31 31 0 0 1 1.742-3.562c.195-.344.418-.676.625-1.016a33 33 0 0 1 1.89-2.77c.082-.1.141-.222.223-.327l-51.836-29.895c-.047.098-.105.184-.148.281m0 0"/><g clip-path="url(#a)"><path fill="#496d8f" d="M170.273 80.484c9.098 8.493 24.477 8.493 33.575 0 3.77-3.515 6.3-7.89 7.328-12.668.449-1.785.648-3.539.648-5.515 0-13.656-11.105-24.77-24.762-24.77-13.66 0-24.765 11.114-24.765 24.77 0 1.972.203 3.73.617 5.375 1.055 4.914 3.586 9.293 7.36 12.808m0 0"/></g><path fill="#496d8f" d="M295.445 215.473c1.36.015 2.72.086 4.055.265v-57.414a33 33 0 0 1-4.012.266c-.144 0-.289.035-.433.035-.317 0-.637-.066-.953-.07a36 36 0 0 1-3.079-.235c-.136-.02-.277-.011-.414-.035v57.504c.098-.012.192-.012.29-.023a33 33 0 0 1 3.558-.262c.328-.004.656-.031.984-.027ZM103.516 129.7a25 25 0 0 0 .324-4.036c0-2.086-.278-4.184-.832-6.223a25 25 0 0 0-1.153-3.472c-.164-.387-.386-.746-.566-1.125-.344-.707-.672-1.422-1.082-2.094-.262-.434-.582-.82-.871-1.23-.406-.579-.793-1.168-1.254-1.715-.336-.403-.742-.77-1.105-1.157-.477-.496-.934-1.003-1.454-1.464a6 6 0 0 1-.242-.184 24.6 24.6 0 0 0-16.207-6.105c-13.683 0-24.82 11.109-24.82 24.77 0 10.968 7.02 20.464 17.469 23.632.972.312 1.968.516 2.972.7 3.817.694 7.868.507 11.703-.688 9.141-2.786 15.645-10.403 17.125-19.61Zm4.007-20.587a31 31 0 0 1 1.536 2.992c.039.086.093.168.136.262l51.852-29.898c-.078-.098-.137-.215-.215-.313a33 33 0 0 1-1.96-2.87c-.18-.302-.38-.59-.552-.891-.656-1.168-1.261-2.36-1.761-3.598l-51.946 30.043a31.5 31.5 0 0 1 2.375 3.344c.192.304.356.62.535.933Zm157.61 2.86a32 32 0 0 1 1.59-3.051c.175-.3.332-.61.52-.899a32 32 0 0 1 2.292-3.199L217.56 74.785a32 32 0 0 1-1.735 3.555c-.203.355-.433.7-.644 1.047a33 33 0 0 1-1.868 2.738c-.082.11-.148.23-.23.34l51.852 29.894c.058-.136.14-.254.199-.386m0 0"/><g clip-path="url(#b)"><path fill="#496d8f" d="M170.273 293.582c-3.765 3.516-6.3 7.89-7.328 12.656-.445 1.793-.648 3.551-.648 5.524 0 13.656 11.105 24.761 24.766 24.761 13.656 0 24.761-11.105 24.761-24.761 0-1.969-.199-3.73-.617-5.375-1.05-4.91-3.586-9.29-7.36-12.805-9.097-8.504-24.476-8.504-33.574 0m0 0"/></g><path fill="#496d8f" d="M79.07 158.617c-.144 0-.285-.031-.425-.031-1.352-.016-2.696-.086-4.02-.266v57.414a33 33 0 0 1 4.047-.27c.316 0 .633.024.95.028q1.798.035 3.597.262c.097.012.195.012.289.023v-57.504c-.137.02-.274.02-.41.036a33 33 0 0 1-3.102.234c-.308.012-.621.07-.933.07Zm187.528 106.34a32 32 0 0 1-1.547-3.02c-.04-.082-.086-.16-.125-.242l-51.848 29.899c.074.097.133.207.211.312q1.068 1.401 1.973 2.895c.172.289.37.57.535.867a32 32 0 0 1 1.77 3.598l51.94-30.04a32 32 0 0 1-2.37-3.343c-.192-.305-.356-.621-.535-.934Zm0 0"/></svg>