<svg xmlns="http://www.w3.org/2000/svg" width="500" height="500" version="1.0" viewBox="0 0 375.12 383.04"><defs><clipPath id="a"><path d="M37.438 51.809h299.25v270.82H37.438Zm0 0"/></clipPath></defs><g clip-path="url(#a)"><path fill="#496d8f" d="m266.582 321.691-31.328-18.093a122.3 122.3 0 0 0 26.164-27.004l13.023 37.23c.801 2.281.258 4.688-1.464 6.403-1.72 1.707-4.309 2.675-6.403 1.464ZM62.434 276.59 49.41 313.82c-.805 2.278-.258 4.684 1.465 6.403 1.715 1.703 4.29 2.672 6.398 1.464l31.313-18.097a122.3 122.3 0 0 1-26.152-27m196.757-11.985h-25.878a92 92 0 0 1-6.262 6.946c-35.977 35.957-94.281 35.957-130.242 0-35.957-35.957-35.957-94.27 0-130.238 35.96-35.961 94.273-35.961 130.242 0a92.5 92.5 0 0 1 17.164 23.746l12.219-21.176a114 114 0 0 0-20.852-23.559l10.887-15.906 27.691 18.969 7.543-11.012c8.29-12.105 5.176-28.79-6.926-37.082l-5.703-3.906 8.914-13.028a4.213 4.213 0 0 0-1.093-5.847 4.214 4.214 0 0 0-5.848 1.097l-8.91 13.024-5.684-3.89c-12.11-8.29-28.793-5.157-37.082 6.944l-7.543 11 27.695 18.977-10.55 15.422c-18.778-13.809-41.953-21.973-67.047-21.973s-48.281 8.16-67.059 21.973L84.32 99.664l27.707-18.976-7.543-11c-8.289-12.106-24.972-15.235-37.082-6.946l-5.683 3.895-8.91-13.024a4.213 4.213 0 0 0-5.848-1.093 4.21 4.21 0 0 0-1.094 5.843l8.914 13.032-5.703 3.898c-12.101 8.285-15.215 24.969-6.926 37.07l7.528 11.012 27.695-18.969 10.883 15.906c-24.281 20.782-39.676 51.649-39.676 86.114 0 62.582 50.754 113.336 113.336 113.336 41.32 0 77.469-22.117 97.262-55.16Zm-157.457-97.777-5.894-3.402a4.204 4.204 0 0 0-4.203 7.281l5.89 3.402a4.2 4.2 0 0 0 2.102.57 4.206 4.206 0 0 0 2.105-7.844Zm-7.53 39.602a4.21 4.21 0 0 0-4.208-4.203h-6.808a4.204 4.204 0 0 0 0 8.41h6.808a4.21 4.21 0 0 0 4.207-4.207m28.124 60.191-3.402 5.895a4.204 4.204 0 0 0 1.539 5.742 4.2 4.2 0 0 0 2.097.566 4.2 4.2 0 0 0 3.645-2.097l3.402-5.895a4.206 4.206 0 0 0-1.535-5.742 4.21 4.21 0 0 0-5.746 1.539Zm35.39 11.738v6.809a4.204 4.204 0 0 0 8.41 0v-6.809a4.21 4.21 0 0 0-4.202-4.207 4.21 4.21 0 0 0-4.207 4.207m4.208-139.64a4.204 4.204 0 0 0 4.203-4.203v-6.809a4.204 4.204 0 0 0-8.41 0v6.809a4.21 4.21 0 0 0 4.207 4.203m66.082 24.707-5.91 3.402a4.213 4.213 0 0 0-1.543 5.746 4.203 4.203 0 0 0 5.742 1.543l5.91-3.406a4.204 4.204 0 1 0-4.2-7.285m-24.621-28.828a4.207 4.207 0 0 0-5.742 1.543l-3.407 5.91a4.213 4.213 0 0 0 1.543 5.746 4.2 4.2 0 0 0 5.746-1.547l3.403-5.91a4.21 4.21 0 0 0-1.543-5.742M93.742 249.996a4.1 4.1 0 0 0 2.098-.566l5.894-3.403a4.205 4.205 0 0 0-4.207-7.281l-5.89 3.402a4.204 4.204 0 0 0 2.105 7.844Zm35.867-107.945-3.402-5.91a4.21 4.21 0 0 0-5.742-1.543 4.2 4.2 0 0 0-1.543 5.742l3.402 5.91a4.2 4.2 0 0 0 5.742 1.547 4.21 4.21 0 0 0 1.543-5.746m68.04 134.668a4.2 4.2 0 0 0 3.644 2.101c.71 0 1.434-.18 2.098-.57a4.203 4.203 0 0 0 1.539-5.742l-3.403-5.89a4.207 4.207 0 0 0-5.746-1.54 4.206 4.206 0 0 0-1.535 5.742l3.402 5.895Zm5.48-70.29a4.205 4.205 0 0 0-4.207-4.202h-32.785V150.21a4.204 4.204 0 0 0-8.41 0v56.219a4.205 4.205 0 0 0 4.203 4.207h36.992a4.206 4.206 0 0 0 4.207-4.207m125.492 49.766H215.082c-2.914 0-5.434-1.449-6.879-3.965-1.469-2.539-1.469-5.433 0-7.968l56.762-98.32c1.465-2.536 3.965-3.985 6.898-3.985 2.93 0 5.43 1.45 6.895 3.984l56.765 98.32c1.465 2.536 1.465 5.43 0 7.97-1.464 2.515-3.964 3.964-6.898 3.964Zm-63.71-50.226c0 3.183 3.1 5.773 6.944 5.773 3.848 0 6.946-2.59 6.946-5.773v-30.32c0-3.204-3.117-5.794-6.946-5.794s-6.945 2.59-6.945 5.793Zm14.37 28.554a7.42 7.42 0 0 0-7.426-7.425c-4.101 0-7.44 3.32-7.44 7.425v.055c0 4.102 3.339 7.422 7.44 7.422a7.42 7.42 0 0 0 7.426-7.422Zm0 0"/></g></svg>