<svg xmlns="http://www.w3.org/2000/svg" width="500" height="500" version="1.0" viewBox="0 0 375.12 383.04"><defs><clipPath id="a"><path d="M39.68 37.406h294.76v299.25H39.68Zm0 0"/></clipPath></defs><g clip-path="url(#a)"><path fill="#496d8f" fill-rule="evenodd" d="M169.5 119.852v-12.254l18.484-4.68a65.6 65.6 0 0 1 6.696-16.16l-9.825-16.485 8.668-8.664 8.668-8.668 16.493 9.832a65.6 65.6 0 0 1 16.39-6.746l4.664-18.422h24.512l4.664 18.422a65.6 65.6 0 0 1 16.39 6.746l16.493-9.832 17.332 17.332-9.824 16.485a65.3 65.3 0 0 1 6.699 16.16l18.484 4.68v24.511l-18.484 4.676a65.4 65.4 0 0 1-6.7 16.164l9.825 16.48-17.332 17.333-16.492-9.832a65.4 65.4 0 0 1-16.39 6.746l-4.665 18.422h-24.512l-4.664-18.422a65.5 65.5 0 0 1-16.39-6.746l-16.493 9.832-8.668-8.668-8.668-8.664 9.825-16.48a65.6 65.6 0 0 1-6.696-16.165L169.5 132.11ZM39.71 254.21l-.003 12.258 18.484 4.676a65.7 65.7 0 0 0 6.7 16.164l-9.825 16.48 8.668 8.664 8.664 8.668 16.493-9.832a65.6 65.6 0 0 0 16.394 6.746l4.66 18.422h24.512l4.664-18.422a65.6 65.6 0 0 0 16.39-6.746l16.497 9.832 8.664-8.668 8.668-8.664-9.824-16.48a65.7 65.7 0 0 0 6.699-16.164l18.48-4.676v-24.516l-18.48-4.676a65.6 65.6 0 0 0-6.7-16.16l9.825-16.484-8.668-8.664-8.664-8.668-16.496 9.832a65.6 65.6 0 0 0-16.39-6.746l-4.665-18.422h-24.512l-4.66 18.422a65.6 65.6 0 0 0-16.394 6.746L72.398 187.3l-8.664 8.668-8.668 8.664 9.825 16.484a65.6 65.6 0 0 0-6.7 16.16l-18.484 4.676Zm179.782 31.656-14.351 14.352-.004.008-.063.062-.008.012-.07.074-.062.078-.043.055-.02.027-.039.05-.02.028-.039.051-.02.031-.034.047-.024.035-.027.043-.023.04-.028.042-.023.043-.028.04-.023.046-.023.04-.086.171-.024.051-.078.176-.016.039-.02.05a4 4 0 0 0-.245 1.126l-.008.082v.011l-.004.192.004.191v.016l.008.082c.027.39.113.765.246 1.12l.02.052.015.039.078.18.11.218.046.086.028.04.023.042.028.043.023.04.027.042.024.035.035.051.02.031.038.047.02.031.04.051.019.024.043.054.062.079.07.074.008.011.063.063.004.008.066.066v.004l.066.066 14.22 14.215a3.984 3.984 0 0 0 5.632 0 3.984 3.984 0 0 0 0-5.632l-7.48-7.485h60.492c7.945 0 15.172-3.25 20.402-8.48 5.234-5.235 8.484-12.457 8.484-20.403v-73.437a3.987 3.987 0 0 0-7.972 0v73.437c0 5.746-2.356 10.977-6.145 14.77-3.793 3.789-9.023 6.144-14.77 6.144h-60.491l7.48-7.48a3.984 3.984 0 0 0-5.633-5.637m-118.668-30.262a3.984 3.984 0 0 1 0-5.632 3.984 3.984 0 0 1 5.633 0l10.508 10.504 20.984-20.985a3.984 3.984 0 0 1 5.633 5.637l-23.8 23.8a3.99 3.99 0 0 1-5.637 0Zm21.38-40.406c21.542 0 39.01 17.465 39.01 39.012s-17.468 39.012-39.01 39.012c-21.548 0-39.013-17.465-39.013-39.012s17.465-39.012 39.012-39.012m47.698-145.511-.02-.055-.015-.04-.078-.175-.023-.05-.02-.04-.047-.086-.043-.086-.027-.047-.024-.039-.023-.043-.027-.043-.024-.039-.031-.043-.055-.082-.023-.03-.035-.052-.02-.027-.039-.05-.02-.028-.042-.055-.02-.02-.047-.058-.066-.074-.012-.012-.059-.062-.003-.008-.07-.067-.067-.066-14.215-14.219a3.984 3.984 0 0 0-5.637 5.633l7.485 7.484H96.059c-7.946 0-15.168 3.25-20.403 8.48-5.23 5.235-8.48 12.458-8.48 20.403v73.438a3.984 3.984 0 1 0 7.969 0V95.992c0-5.746 2.355-10.976 6.148-14.765 3.789-3.793 9.02-6.149 14.766-6.149h60.496l-7.485 7.484a3.984 3.984 0 0 0 5.637 5.633l14.215-14.215.066-.07.07-.066.005-.004.058-.067.012-.011.066-.075.047-.058.02-.02.043-.054.02-.024.058-.082.035-.047.078-.117.031-.043.024-.039.027-.043.023-.043.024-.039.027-.043.02-.043.023-.047.047-.086.043-.086.078-.18.016-.038.02-.051q.198-.534.245-1.121l.004-.082v-.016l.008-.191-.008-.192v-.015l-.004-.078a4 4 0 0 0-.246-1.121m60.715 51.558 13.32 13.324a3.99 3.99 0 0 0 5.637 0l23.801-23.8a3.99 3.99 0 0 0 0-5.637 3.99 3.99 0 0 0-5.637 0l-20.984 20.984-10.504-10.504a3.984 3.984 0 0 0-5.633 0 3.984 3.984 0 0 0 0 5.633m21.38-40.406c-21.548 0-39.013 17.465-39.013 39.012 0 21.546 17.465 39.011 39.012 39.011 21.543 0 39.012-17.465 39.012-39.011S273.539 80.84 251.996 80.84m0 0"/></g></svg>